<svg width="44" height="44" viewBox="0 0 44 44" fill="none" xmlns="http://www.w3.org/2000/svg">
<g clip-path="url(#clip0_2237_467)">
<path fill-rule="evenodd" clip-rule="evenodd" d="M22.0091 24.1536L27.3973 29.5357C27.6833 29.8213 28.0711 29.9818 28.4754 29.9818C28.8797 29.9818 29.2675 29.8213 29.5535 29.5357C29.8394 29.2501 30 28.8628 30 28.4589C30 28.055 29.8394 27.6677 29.5535 27.3821L24.1632 22L29.5524 16.6179C29.6939 16.4765 29.8062 16.3086 29.8827 16.1239C29.9593 15.9392 29.9987 15.7412 29.9986 15.5412C29.9986 15.3413 29.9591 15.1433 29.8825 14.9586C29.8058 14.7739 29.6935 14.6061 29.5519 14.4648C29.4104 14.3234 29.2423 14.2113 29.0574 14.1348C28.8724 14.0584 28.6742 14.019 28.474 14.0191C28.2739 14.0191 28.0757 14.0586 27.8908 14.1351C27.7058 14.2117 27.5378 14.3239 27.3963 14.4653L22.0091 19.8474L16.6209 14.4653C16.4804 14.3198 16.3122 14.2037 16.1263 14.1239C15.9404 14.044 15.7404 14.0019 15.5381 14.0001C15.3357 13.9982 15.135 14.0366 14.9476 14.1131C14.7603 14.1896 14.5901 14.3025 14.4469 14.4454C14.3037 14.5883 14.1905 14.7582 14.1138 14.9452C14.037 15.1323 13.9984 15.3327 14.0001 15.5349C14.0017 15.737 14.0437 15.9368 14.1235 16.1226C14.2032 16.3083 14.3193 16.4764 14.4648 16.6169L19.855 22L14.4658 27.3831C14.3203 27.5236 14.2043 27.6917 14.1245 27.8774C14.0447 28.0632 14.0027 28.263 14.0011 28.4651C13.9994 28.6673 14.0381 28.8677 14.1148 29.0548C14.1915 29.2418 14.3048 29.4117 14.4479 29.5546C14.5911 29.6975 14.7613 29.8104 14.9487 29.8869C15.136 29.9634 15.3367 30.0018 15.5391 29.9999C15.7415 29.9981 15.9414 29.956 16.1273 29.8761C16.3132 29.7963 16.4814 29.6802 16.6219 29.5347L22.0091 24.1536Z" fill="#020202"/>
</g>
<defs>
<clipPath id="clip0_2237_467">
<rect width="44" height="44" fill="white"/>
</clipPath>
</defs>
</svg>
