<svg width="150" height="150" viewBox="0 0 150 150" fill="none" xmlns="http://www.w3.org/2000/svg">
<rect width="150" height="150" rx="20" fill="url(#paint0_radial_2402_2668)"/>
<path fill-rule="evenodd" clip-rule="evenodd" d="M39.5958 25.118C37.8307 25.4868 36.5432 26.8847 36.5432 28.4321C36.5432 28.7496 36.7135 29.9157 36.9216 31.0236C39.1973 43.1397 39.444 53.1843 37.6273 59.7571C36.4591 63.9838 34.7036 66.7112 32.1681 68.2387C31.1577 68.8474 30.797 69.1939 30.3879 69.9489L30.048 70.5764L30.0099 92.9399C29.9821 109.26 30.0112 115.488 30.1177 115.988C30.3877 117.255 31.3379 118.399 32.5936 118.969C33.4064 119.338 35.969 120.141 38.6011 120.852C59.2835 126.441 85.1156 126.891 106.576 122.036C110.961 121.044 115.915 119.642 117.412 118.969C118.663 118.406 119.611 117.263 119.882 115.988C119.989 115.488 120.018 109.26 119.99 92.9399L119.952 70.5764L119.656 70.0059C119.302 69.3232 118.645 68.6931 117.752 68.1814C113.053 65.4877 110.611 56.9936 111.257 45.5887C111.511 41.1133 112.043 36.7249 112.894 32.0983C113.491 28.8528 113.548 28.1492 113.272 27.4124C112.93 26.4982 112.301 25.8637 111.306 25.429L110.44 25.0509L102.141 25.0155C93.0248 24.9766 93.3148 24.9565 92.8468 25.6592C92.4213 26.2983 90.9137 27.4888 89.4052 28.377C85.1298 30.8943 79.7185 32.1972 74.2283 32.031C69.975 31.9022 66.5795 31.1155 62.7945 29.3816C60.4979 28.3296 58.1783 26.7966 57.1852 25.6743C56.546 24.9519 57.0938 24.9927 48.1866 25.0052C43.7281 25.0116 39.8623 25.0623 39.5958 25.118ZM40.1774 27.3871C39.6537 27.4973 39.4411 27.6528 39.2478 28.0669C39.1204 28.3394 39.171 28.8092 39.5512 30.887C40.9876 38.7384 41.5175 44.3709 41.39 50.4349C41.2967 54.8766 40.9938 57.275 40.1231 60.4661C38.8934 64.9731 36.7052 68.3218 33.9065 69.9796C32.6016 70.7525 32.6908 70.4269 32.6875 74.4273L32.6846 77.9358H35.2611C38.1143 77.9358 38.4494 77.9967 39.2233 78.6548C39.4593 78.8555 39.7777 79.2252 39.9307 79.4762C40.1963 79.9121 40.2106 80.0947 40.2492 83.5581C40.2965 87.8113 40.2422 88.1241 39.3139 88.9475C38.4793 89.688 37.9044 89.8021 35.0085 89.8021H32.6203V93.5674V97.3327H35.0085C37.9044 97.3327 38.4793 97.4468 39.3139 98.1873C40.2399 99.0087 40.2933 99.3165 40.2476 103.572C40.2103 107.055 40.1974 107.221 39.927 107.67C39.5989 108.213 38.8646 108.818 38.2609 109.042C37.9496 109.157 37.1562 109.199 35.2611 109.199H32.6846V112.462C32.6846 116.693 32.6275 116.577 35.0871 117.368C45.5263 120.727 59.3924 122.875 71.5916 123.023L73.6495 123.048L73.6809 89.9092L73.7123 56.7704L72.6806 56.5157C70.6335 56.01 68.9929 55.1198 67.0344 53.4523C64.4731 51.2713 62.598 48.8561 60.3982 44.9041C57.3686 39.4613 55.436 33.7564 54.7163 28.1316L54.614 27.3329L52.8235 27.301C51.8388 27.2835 50.9871 27.3099 50.9308 27.3599C50.8746 27.4098 50.9079 27.7579 51.0047 28.1334C51.2972 29.267 51.8567 31.6958 51.9794 32.3647C52.275 33.9751 51.3213 35.6572 49.7002 36.3847C47.5818 37.3355 44.956 36.5729 43.8748 34.6931C43.6303 34.2677 43.2835 32.9493 42.3743 28.9873C42.1944 28.2029 41.9881 27.4969 41.9161 27.4184C41.7731 27.2627 40.847 27.246 40.1774 27.3871ZM44.7489 27.3367C44.6725 27.4045 45.9753 33.1108 46.1687 33.5555C46.4982 34.3132 47.6527 34.6837 48.4891 34.3001C48.9905 34.0701 49.4035 33.5015 49.4058 33.0378C49.4082 32.5642 48.2397 27.5941 48.0846 27.4184C47.9961 27.3183 47.4917 27.2758 46.3881 27.2758C45.5243 27.2758 44.7867 27.3032 44.7489 27.3367ZM95.3875 27.4136C95.3551 27.4946 95.2395 28.2163 95.1307 29.0173C94.4314 34.1603 92.3908 39.9764 89.4655 45.1647C87.5539 48.5553 85.7666 50.9059 83.5591 52.9325C81.5271 54.7981 79.2699 56.0821 77.1839 56.5588L76.2862 56.7639V89.8777C76.2862 108.09 76.3295 123.01 76.3826 123.032C76.5425 123.099 82.3778 122.92 84.582 122.78C94.9109 122.125 104.483 120.489 113.259 117.879C116.127 117.026 116.651 116.794 117.024 116.209C117.303 115.773 117.311 115.662 117.313 112.479L117.315 109.199H114.824C112.031 109.199 111.512 109.107 110.777 108.481C110.541 108.28 110.222 107.91 110.069 107.659C109.804 107.223 109.789 107.04 109.751 103.577C109.706 99.5374 109.766 99.1209 110.507 98.3278C111.302 97.476 111.634 97.3979 114.647 97.3528L117.315 97.3127V93.5575V89.8021H114.959C112.099 89.8021 111.519 89.6861 110.686 88.9475C109.758 88.1241 109.703 87.8113 109.751 83.5581C109.789 80.1032 109.804 79.911 110.068 79.4747C110.436 78.8652 110.965 78.4054 111.592 78.1502C112.036 77.9694 112.461 77.9405 114.711 77.9383L117.315 77.9358L117.313 74.4273C117.309 70.4242 117.4 70.7534 116.083 69.9733C112.865 68.0677 110.437 63.862 109.35 58.3108C108.842 55.721 108.677 53.9558 108.606 50.3809C108.486 44.2936 109.006 38.7957 110.455 30.8478L110.917 28.3155L110.669 27.9383C110.518 27.7079 110.249 27.5081 109.978 27.4248C109.383 27.2425 108.249 27.2386 108.086 27.4184C108.015 27.4969 107.625 28.9987 107.22 30.7558C106.815 32.513 106.354 34.2097 106.195 34.5264C105.396 36.1207 103.535 37.0103 101.582 36.7312C99.7272 36.4663 98.385 35.2949 98.0403 33.6404C97.8862 32.901 97.9254 32.6409 98.657 29.5593C98.9324 28.3991 99.1339 27.4158 99.1048 27.3742C99.0759 27.3324 98.2408 27.2911 97.2493 27.2822C95.8784 27.27 95.4323 27.3015 95.3875 27.4136ZM101.832 27.4755C101.622 28.105 100.595 32.7012 100.596 33.0107C100.597 34.2768 102.442 34.9317 103.461 34.0279C103.828 33.7028 103.899 33.4828 104.587 30.5638C104.992 28.8496 105.297 27.4084 105.266 27.3614C105.235 27.3144 104.465 27.2758 103.554 27.2758C102.089 27.2758 101.891 27.2987 101.832 27.4755ZM57.5874 29.6982C57.6308 29.9789 57.7923 30.768 57.9464 31.4518L58.2265 32.6952L59.0525 33.1212C62.1158 34.7013 66.8626 36.0888 70.8199 36.561C76.1134 37.1925 81.7202 36.5885 86.7566 34.8441C88.3044 34.308 91.1987 33.0724 91.5472 32.7989C91.7615 32.6307 91.8877 32.2711 92.104 31.2122C92.2578 30.4592 92.4144 29.7277 92.4517 29.5867C92.5084 29.3731 92.281 29.4719 91.0852 30.1807C87.9347 32.0479 84.2227 33.3373 80.0174 34.0251C77.9722 34.3597 73.6593 34.439 71.3987 34.1836C66.4776 33.6278 61.9651 32.0316 57.7977 29.3725L57.5086 29.1881L57.5874 29.6982ZM59.18 35.866C59.18 35.9805 60.5153 39.3858 60.9028 40.2596C63.194 45.4259 66.5499 50.1685 69.4234 52.3013C73.3071 55.1838 76.5708 55.2152 80.4395 52.4074C83.1898 50.4114 86.3044 46.167 88.686 41.1699C89.3016 39.8782 90.8564 35.9416 90.7785 35.8724C90.7533 35.85 90.1791 36.0612 89.5027 36.3416C86.8964 37.4221 82.9195 38.4363 79.5659 38.8758C77.3855 39.1616 72.433 39.1619 70.3697 38.8763C66.7104 38.3697 63.2504 37.4723 60.3519 36.2779C59.2874 35.8392 59.18 35.8014 59.18 35.866ZM48.4881 75.1377C47.4018 75.4923 46.6764 76.0867 46.0482 77.1371C45.7897 77.5695 45.7414 77.8128 45.7429 78.6775C45.7443 79.5352 45.7965 79.7984 46.0604 80.2749C46.44 80.9604 47.2573 81.7117 47.9784 82.038C48.9101 82.4598 50.1354 82.5152 57.7009 82.478L64.9035 82.4428L65.6902 82.1202C69.0578 80.7396 69.0873 76.6388 65.7395 75.2624L65.0321 74.9715L56.9935 74.9784C50.6228 74.9839 48.858 75.017 48.4881 75.1377ZM84.6312 75.1268C81.736 76.0446 80.8218 79.1967 82.8726 81.1909C83.2704 81.5778 83.7557 81.8935 84.2874 82.1113L85.0965 82.4428L92.5564 82.4789C100.356 82.5167 101.036 82.4842 102.051 82.0247C102.744 81.711 103.573 80.9447 103.946 80.2719C104.209 79.7973 104.261 79.5363 104.261 78.6775C104.261 77.7138 104.232 77.605 103.8 76.9089C103.496 76.4181 103.126 76.0231 102.707 75.7407C101.528 74.9456 101.82 74.9687 93.0158 74.9743C86.878 74.9782 84.9918 75.0125 84.6312 75.1268ZM49.0436 77.4808C48.1794 77.9514 48.0467 78.9744 48.7582 79.6809L49.1265 80.0467L56.8664 80.0778L64.6062 80.109L65.1086 79.6634C65.528 79.2912 65.6109 79.1412 65.6109 78.7534C65.6109 78.175 65.4353 77.8304 64.9912 77.5365C64.6567 77.3151 64.4182 77.3074 57.0578 77.2787C49.6256 77.2498 49.4606 77.2539 49.0436 77.4808ZM85.3432 77.3618C85.1961 77.4146 84.9211 77.6207 84.7323 77.8197C84.1278 78.457 84.3402 79.4844 85.166 79.9171C85.4847 80.0841 86.3113 80.1037 93.0395 80.1037H100.557L100.989 79.8452C101.238 79.6965 101.502 79.4001 101.61 79.1475C101.867 78.5503 101.615 77.8815 100.994 77.5117L100.557 77.2512L93.084 77.2584C88.9738 77.2624 85.4905 77.309 85.3432 77.3618ZM32.6561 83.8143L32.6203 87.4109L35.0641 87.3799L37.5078 87.349L37.5419 83.8768C37.5684 81.1749 37.5398 80.3842 37.4133 80.313C37.3238 80.2625 36.2249 80.2206 34.9712 80.2195L32.6917 80.2178L32.6561 83.8143ZM112.587 80.313C112.46 80.3842 112.432 81.1749 112.458 83.8768L112.492 87.349L114.904 87.3801L117.315 87.4111V83.8145V80.2178L115.032 80.2195C113.777 80.2206 112.676 80.2625 112.587 80.313ZM48.531 90.0165C46.7305 90.5729 45.5547 92.1695 45.7068 93.8514C45.8279 95.1889 46.7326 96.3635 48.1006 96.9596L48.8262 97.2757H56.9292H65.0321L65.7454 96.9789C67.1059 96.4127 67.877 95.5399 68.1794 94.2235C68.3639 93.4199 68.1915 92.5234 67.6949 91.7054C67.2819 91.0254 66.6745 90.5425 65.7454 90.156L65.0321 89.8592L57.1221 89.8326C49.7218 89.8079 49.1682 89.8197 48.531 90.0165ZM84.8118 89.966C83.1824 90.4228 82.1688 91.4201 81.8237 92.9055C81.4027 94.7177 82.7606 96.6304 84.8507 97.1694C85.4096 97.3135 86.7063 97.3346 93.3421 97.3076C101.059 97.2761 101.183 97.272 101.775 97.0291C102.627 96.6799 103.489 95.932 103.904 95.181C104.215 94.6189 104.26 94.4072 104.255 93.5104C104.251 92.6308 104.201 92.401 103.913 91.9084C103.505 91.2114 102.59 90.4396 101.775 90.1058C101.182 89.8624 101.072 89.8589 93.2638 89.8366C86.9768 89.8186 85.2425 89.8452 84.8118 89.966ZM49.2789 92.284C48.7438 92.5225 48.2474 93.14 48.2474 93.5674C48.2474 93.9948 48.7438 94.6123 49.2789 94.8508C49.6896 95.0339 50.3199 95.0498 56.9292 95.0441C62.1585 95.0395 64.2538 95.0005 64.5774 94.9017C65.1454 94.7281 65.6109 94.1272 65.6109 93.5674C65.6109 93.0077 65.1454 92.4067 64.5774 92.2332C64.2538 92.1343 62.1585 92.0953 56.9292 92.0908C50.3199 92.085 49.6896 92.1009 49.2789 92.284ZM85.3242 92.2533C84.8042 92.4538 84.3903 93.0411 84.3896 93.5791C84.389 94.1266 84.86 94.7298 85.4226 94.9017C85.7462 95.0005 87.8415 95.0395 93.0708 95.0441C99.6801 95.0498 100.31 95.0339 100.721 94.8508C101.234 94.622 101.753 93.9994 101.753 93.6115C101.753 93.1029 101.342 92.5503 100.788 92.3122C100.275 92.0922 99.9985 92.0843 92.9981 92.0886C87.0573 92.0922 85.6642 92.1221 85.3242 92.2533ZM32.6561 103.321L32.6917 106.917L34.9712 106.915C36.2249 106.914 37.3238 106.872 37.4133 106.822C37.5398 106.751 37.5684 105.96 37.5419 103.258L37.5078 99.7858L35.0641 99.7549L32.6203 99.724L32.6561 103.321ZM112.514 99.8049C112.466 99.8466 112.428 101.433 112.428 103.33C112.428 106.369 112.452 106.787 112.631 106.848C112.743 106.886 113.843 106.917 115.075 106.917H117.315V103.323V99.7288H114.957C113.66 99.7288 112.561 99.763 112.514 99.8049ZM49.0634 104.752C47.8446 104.97 46.6963 105.755 46.1212 106.762C45.7817 107.356 45.7395 107.544 45.74 108.457C45.7407 109.42 45.7694 109.531 46.2003 110.226C46.5044 110.717 46.8742 111.112 47.293 111.395C48.4828 112.198 48.1821 112.176 57.1986 112.14L65.2893 112.109L65.9324 111.805C67.3259 111.146 68.2153 109.875 68.2275 108.525C68.2378 107.389 67.8947 106.659 66.9625 105.833C65.6105 104.636 66.1165 104.696 57.2507 104.674C53.0417 104.664 49.3574 104.699 49.0634 104.752ZM85.2065 104.751C83.8164 105.002 82.4166 106.058 81.9998 107.172C81.2836 109.084 82.2752 111.081 84.344 111.893L85.0522 112.17L93.1772 112.14L101.302 112.109L101.936 111.832C102.742 111.48 103.447 110.854 103.901 110.087C104.214 109.559 104.258 109.358 104.259 108.457C104.26 107.546 104.218 107.356 103.882 106.768C103.428 105.973 102.745 105.399 101.768 104.993L101.045 104.692L93.3924 104.673C89.1834 104.663 85.4997 104.698 85.2065 104.751ZM49.1977 107.143C48.8159 107.28 48.3969 107.786 48.3047 108.222C48.1965 108.734 48.5258 109.372 49.0436 109.654C49.4606 109.881 49.6254 109.885 57.0998 109.856L64.7305 109.827L65.1706 109.4C65.5394 109.043 65.6109 108.888 65.6109 108.446C65.6109 107.984 65.5479 107.861 65.1116 107.474L64.6122 107.031L57.0408 107.038C52.8764 107.042 49.3471 107.089 49.1977 107.143ZM85.2235 107.157C84.4533 107.493 84.1378 108.657 84.6577 109.243C85.2411 109.901 85.0136 109.884 93.0966 109.883C100.326 109.883 100.542 109.876 100.956 109.652C101.821 109.185 101.954 108.161 101.242 107.454L100.873 107.088L93.1779 107.066C88.2982 107.052 85.3876 107.085 85.2235 107.157Z" fill="#090909"/>
<defs>
<radialGradient id="paint0_radial_2402_2668" cx="0" cy="0" r="1" gradientUnits="userSpaceOnUse" gradientTransform="translate(75 75) rotate(90) scale(75)">
<stop offset="0.229" stop-color="#FCEA36" stop-opacity="0.6"/>
<stop offset="1" stop-color="#4B56ED" stop-opacity="0.4"/>
</radialGradient>
</defs>
</svg>
