<svg width="150" height="150" viewBox="0 0 150 150" fill="none" xmlns="http://www.w3.org/2000/svg">
<rect width="150" height="150" rx="20" fill="url(#paint0_radial_2402_2672)"/>
<path d="M103.732 106.418C99.464 106.418 95.46 104.768 92.446 101.754C89.784 99.07 88.156 95.616 87.848 91.898H61.536C61.206 95.616 59.6 99.07 56.938 101.754C53.924 104.768 49.92 106.418 45.652 106.418C41.384 106.418 37.38 104.768 34.388 101.754C31.726 99.07 30.098 95.616 29.79 91.898H20.044V64.838H66.024V52.474C66.024 48.602 69.17 45.478 73.02 45.478H88.464C92.424 45.478 96.208 47.37 98.584 50.538L109.32 64.838H118.274C124.39 64.838 129.384 69.81 129.384 75.948V87.3C129.384 89.83 127.316 91.876 124.786 91.876H119.638C119.308 95.594 117.702 99.048 115.04 101.732C112.026 104.746 108.022 106.396 103.754 106.396L103.732 106.418ZM58.742 89.038H90.642V90.468C90.642 93.966 92.006 97.244 94.47 99.73C96.934 102.194 100.234 103.558 103.732 103.558C107.23 103.558 110.508 102.194 112.994 99.73C115.458 97.266 116.822 93.966 116.822 90.468V89.038H124.764C125.71 89.038 126.502 88.268 126.502 87.322V75.97C126.502 71.416 122.806 67.72 118.252 67.72H107.868L96.296 52.276C94.448 49.834 91.522 48.36 88.464 48.36H73.02C70.732 48.36 68.884 50.208 68.884 52.496V67.72H22.904V89.06H32.584V90.49C32.584 93.988 33.948 97.266 36.412 99.752C38.876 102.216 42.176 103.58 45.674 103.58C49.172 103.58 52.45 102.216 54.936 99.752C57.4 97.288 58.764 93.988 58.764 90.49V89.06L58.742 89.038ZM103.732 99.158C101.4 99.158 99.222 98.256 97.594 96.606C95.966 95 95.042 92.756 95.042 90.468C95.042 88.18 95.944 85.958 97.594 84.33C99.244 82.68 101.422 81.778 103.732 81.778C106.042 81.778 108.242 82.68 109.87 84.33C111.52 85.98 112.422 88.158 112.422 90.468C112.422 92.778 111.498 95 109.87 96.606C108.22 98.256 106.042 99.158 103.732 99.158ZM103.732 84.638C102.17 84.638 100.718 85.254 99.618 86.354C98.518 87.454 97.902 88.928 97.902 90.468C97.902 92.008 98.518 93.504 99.618 94.582C101.818 96.782 105.668 96.782 107.868 94.582C108.946 93.504 109.584 92.008 109.584 90.468C109.584 88.928 108.968 87.454 107.868 86.354C106.768 85.254 105.294 84.66 103.754 84.66L103.732 84.638ZM45.652 99.158C43.342 99.158 41.142 98.256 39.514 96.606C37.908 94.978 36.962 92.756 36.962 90.468C36.962 88.18 37.864 85.958 39.514 84.33C41.164 82.68 43.342 81.778 45.652 81.778C47.962 81.778 50.184 82.702 51.79 84.33C53.44 85.98 54.342 88.158 54.342 90.468C54.342 92.778 53.418 95 51.79 96.606C50.184 98.234 47.94 99.158 45.652 99.158ZM45.652 84.638C44.09 84.638 42.638 85.254 41.538 86.354C40.438 87.454 39.844 88.928 39.844 90.468C39.844 92.008 40.46 93.504 41.56 94.582C43.738 96.782 47.632 96.76 49.81 94.582C50.888 93.504 51.526 91.986 51.526 90.468C51.526 88.95 50.91 87.454 49.81 86.354C48.732 85.276 47.236 84.638 45.696 84.638H45.652ZM98.606 67.72H70.644V55.114C70.644 52.43 72.756 50.23 75.33 50.23H84.746C89.432 50.23 93.788 52.474 96.67 56.368L101.136 62.396C101.906 63.43 102.016 64.794 101.422 65.938C100.872 67.038 99.772 67.72 98.584 67.72H98.606ZM73.526 64.86H98.606C98.738 64.86 98.826 64.794 98.892 64.64C98.936 64.574 99.024 64.332 98.848 64.09L94.382 58.062C92.05 54.894 88.53 53.09 84.746 53.09H75.33C74.318 53.09 73.504 53.992 73.504 55.114V64.86H73.526Z" fill="#090909"/>
<path d="M125.094 80.788H120.452C118.604 80.788 117.108 79.292 117.108 77.444V75.376C117.108 73.528 118.604 72.032 120.452 72.032H125.094C126.942 72.032 128.438 73.528 128.438 75.376V77.444C128.438 79.292 126.942 80.788 125.094 80.788ZM120.452 74.892C120.188 74.892 119.968 75.112 119.968 75.376V77.444C119.968 77.708 120.188 77.928 120.452 77.928H125.094C125.358 77.928 125.578 77.708 125.578 77.444V75.376C125.578 75.112 125.358 74.892 125.094 74.892H120.452Z" fill="#090909"/>
<path d="M67.366 91.876C66.574 91.876 65.936 91.238 65.936 90.446V78.764C65.936 73.22 70.776 68.71 76.694 68.71L102.522 68.886C103.314 68.886 103.952 69.546 103.952 70.316C103.952 71.108 103.314 71.746 102.522 71.746L76.716 71.57C72.36 71.57 68.818 74.804 68.818 78.764V90.446C68.818 91.238 68.18 91.876 67.388 91.876H67.366Z" fill="#090909"/>
<path d="M103.578 106.264C94.954 106.264 87.936 99.246 87.936 90.622C87.936 81.998 94.954 74.98 103.578 74.98C112.202 74.98 119.22 81.998 119.22 90.622C119.22 99.246 112.202 106.264 103.578 106.264ZM103.578 77.84C96.538 77.84 90.796 83.582 90.796 90.622C90.796 97.662 96.538 103.404 103.578 103.404C110.618 103.404 116.36 97.662 116.36 90.622C116.36 83.582 110.618 77.84 103.578 77.84Z" fill="#090909"/>
<path d="M45.652 106.44C37.028 106.44 30.01 99.422 30.01 90.798C30.01 82.174 37.028 75.156 45.652 75.156C54.276 75.156 61.294 82.174 61.294 90.798C61.294 99.422 54.276 106.44 45.652 106.44ZM45.652 78.038C38.612 78.038 32.87 83.78 32.87 90.82C32.87 97.86 38.612 103.602 45.652 103.602C52.692 103.602 58.434 97.86 58.434 90.82C58.434 83.78 52.692 78.038 45.652 78.038Z" fill="#090909"/>
<path d="M67.19 70.03H22.09V72.89H67.19V70.03Z" fill="#090909"/>
<path d="M68.862 66.29H66.002V90.336H68.862V66.29Z" fill="#090909"/>
<path d="M81.754 78.544H74.912C74.12 78.544 73.482 77.906 73.482 77.114C73.482 76.322 74.12 75.684 74.912 75.684H81.754C82.546 75.684 83.184 76.322 83.184 77.114C83.184 77.906 82.546 78.544 81.754 78.544Z" fill="#090909"/>
<defs>
<radialGradient id="paint0_radial_2402_2672" cx="0" cy="0" r="1" gradientUnits="userSpaceOnUse" gradientTransform="translate(75 75) rotate(90) scale(75)">
<stop offset="0.229" stop-color="#FCEA36" stop-opacity="0.6"/>
<stop offset="1" stop-color="#4B56ED" stop-opacity="0.4"/>
</radialGradient>
</defs>
</svg>
