<svg width="150" height="151" viewBox="0 0 150 151" fill="none" xmlns="http://www.w3.org/2000/svg">
<rect y="0.5" width="150" height="150" rx="20" fill="url(#paint0_radial_2402_2684)"/>
<path fill-rule="evenodd" clip-rule="evenodd" d="M45.4999 28.0498C41.2574 28.6616 37.9431 30.2073 35.2773 32.8172C24.8648 43.0123 30.7739 60.3704 45.2621 62.1469C47.6119 62.435 49.9774 62.1965 52.4074 61.4264L53.9296 60.9438L56.1012 64.213C58.6796 68.0946 60.2476 71.1547 60.8242 73.43C61.2247 75.0113 61.2298 75.1636 60.9288 76.648C60.4984 78.7709 58.324 83.0543 55.7726 86.8052C54.3051 88.9628 53.6744 89.7318 53.3888 89.7114C53.1753 89.696 52.2708 89.4787 51.3788 89.2286C49.4544 88.689 45.6374 88.5803 43.6754 89.0095C33.659 91.2004 27.7051 101.439 30.8378 111.086C32.302 115.594 35.8987 119.583 40.2292 121.5C44.521 123.401 49.8923 123.377 54.1761 121.438C57.9958 119.709 61.1282 116.589 62.8505 112.798C64.7514 108.613 64.7403 102.994 62.8226 98.7985L62.196 97.4279L63.1731 96.5508C65.2822 94.6577 69.3078 91.8108 71.2922 90.8093C74.6328 89.123 76.3296 89.2412 79.9295 91.4104C81.7808 92.5259 85.166 95.0381 86.7174 96.4476L87.7965 97.4279L87.1693 98.7985C85.2511 102.991 85.2398 108.613 87.1409 112.798C89.3041 117.56 93.5154 121.079 98.6951 122.453C100.895 123.036 104.5 123.043 106.823 122.466C116.604 120.041 122.212 110.077 119.15 100.564C116.212 91.4335 106.274 86.4894 97.1936 89.64L95.9773 90.0621L95.4192 89.4016C93.2253 86.8059 89.7657 81.3104 88.7894 78.8708C87.8593 76.5466 87.7124 75.5086 88.0704 73.7946C88.597 71.2737 91.2048 66.5866 94.4433 62.3403L95.641 60.7698L97.3296 61.3335C99.8612 62.1785 102.292 62.4458 104.729 62.1469C115.59 60.8151 122.494 50.1492 119.154 39.8632C116.658 32.1782 108.934 27.1785 101 28.1125C94.8351 28.8381 89.6692 32.5849 87.1316 38.171C85.2128 42.395 85.2552 48.0169 87.2382 52.3006L87.925 53.7845L86.1701 55.2984C80.7864 59.9424 76.8999 62.1226 74.5033 61.8426C72.4654 61.6046 68.8754 59.4787 64.9611 56.1919C61.8901 53.6134 62.0449 53.9015 62.8114 52.1903C64.7425 47.8797 64.7579 42.3493 62.8505 38.1506C60.706 33.4297 56.418 29.8186 51.4512 28.5507C49.9075 28.1568 46.6562 27.883 45.4999 28.0498ZM45.1018 31.173C41.9888 31.6576 39.6074 32.8852 37.2822 35.2038C35.4227 37.058 34.2293 39.0138 33.5129 41.3807C32.9996 43.0769 32.9996 47.171 33.5129 48.8672C34.235 51.2529 35.4156 53.1913 37.278 55.0483C40.1469 57.9092 43.1561 59.1673 47.1217 59.1639C49.0923 59.1622 51.4461 58.7818 51.8246 58.4043C51.9896 58.2394 47.2263 52.4202 43.7261 48.511C41.9677 46.547 41.9523 46.5205 41.9523 45.4545C41.9523 42.5383 44.9295 39.6608 47.947 39.6608C48.7582 39.6608 48.9149 39.7994 51.6095 42.8982C52.8189 44.2893 55.1425 46.7898 56.7728 48.4546L59.737 51.4819L60.0798 50.8203C61.204 48.6502 61.5416 44.4568 60.8191 41.6369C59.8026 37.6705 57.1142 34.3724 53.3669 32.4953C50.9626 31.2908 47.699 30.7688 45.1018 31.173ZM101.248 31.0931C95.0156 32.0724 90.355 36.26 89.0671 42.0375C88.6207 44.0402 88.758 47.5121 89.3572 49.3758C90.1312 51.7832 89.938 51.8259 93.1777 48.5319C94.7478 46.9356 97.1926 44.3316 98.6106 42.7451C100.196 40.9716 101.386 39.8108 101.701 39.7319C102.399 39.557 104.096 39.9737 105.116 40.5701C106.856 41.5881 108.07 43.5568 108.115 45.4337L108.14 46.4802L105.702 49.0901C101.097 54.0201 97.6509 58.032 97.8064 58.2835C98.0554 58.6853 100.95 59.1839 102.971 59.1728C106.854 59.1517 109.885 57.8685 112.713 55.0483C114.576 53.1913 115.756 51.2529 116.479 48.8672C116.99 47.176 116.985 43.0828 116.47 41.3807C115.339 37.649 112.501 34.2016 109.255 32.6157C108.308 32.1525 107.006 31.6408 106.364 31.4786C105.091 31.157 102.218 30.9405 101.248 31.0931ZM46.3503 43.2752C45.7114 43.6956 45.3177 44.2005 45.1095 44.8666C44.9923 45.2419 45.3655 45.7668 47.3402 48.0028C48.6445 49.4798 50.8572 52.1157 52.2574 53.8604L54.8032 57.0328L55.34 56.6512C56.1857 56.0503 57.9672 54.4106 57.9672 54.2333C57.9672 54.1449 56.7302 52.8103 55.2183 51.2675C53.7066 49.7249 51.3575 47.2106 49.9983 45.6808C48.6392 44.1507 47.3903 42.8994 47.223 42.9C47.0558 42.9005 46.6631 43.0692 46.3503 43.2752ZM100.304 45.3855C99.1154 46.744 96.7452 49.3032 95.0364 51.0724L91.9302 54.2894L93.2397 55.4732C93.9602 56.1244 94.6503 56.6571 94.7733 56.6571C94.8964 56.6571 95.3042 56.2702 95.6797 55.7972C96.9191 54.2355 99.9936 50.7402 102.515 48.0262C103.881 46.5561 104.998 45.2334 104.998 45.0869C104.995 44.2757 103.542 42.8802 102.728 42.9069C102.583 42.9116 101.492 44.0271 100.304 45.3855ZM59.4765 57.0772C59.0366 57.529 58.2435 58.2299 57.7138 58.6345C57.1841 59.0394 56.7509 59.4459 56.7509 59.538C56.7509 59.6298 57.2425 60.4078 57.8431 61.2667C61.2718 66.1685 63.5471 70.8221 64.0492 73.9591C64.5905 77.3406 62.574 82.2917 57.8361 89.2161L56.3941 91.3232L57.5354 92.185C58.1632 92.6588 59.0795 93.4593 59.5717 93.9637L60.4668 94.8809L61.5989 93.9194C64.6298 91.3457 67.6826 89.2402 70.2322 87.9652C73.3334 86.4143 75.3537 86.2207 78.0773 87.2128C80.7534 88.1876 84.7656 90.7615 88.2072 93.711C88.8395 94.2531 89.4367 94.6964 89.5344 94.6964C89.6321 94.6964 90.0726 94.3259 90.5133 93.8733C90.9541 93.4206 91.739 92.7258 92.2575 92.3294L93.2006 91.6085L91.7824 89.7005C89.7515 86.9679 87.8853 83.98 86.7515 81.6457C84.0826 76.1514 84.1747 73.6643 87.2615 67.8411C88.3753 65.74 90.0447 63.1371 91.8813 60.6381L92.8961 59.2569L91.2946 57.7821L89.6929 56.3075L88.9834 56.9084C82.5633 62.3464 78.0462 64.9529 75.0429 64.9529C72.3277 64.9529 67.76 62.4941 62.9568 58.447C61.8544 57.5183 60.8004 56.6452 60.6143 56.507C60.3265 56.2929 60.1578 56.3773 59.4765 57.0772ZM45.0716 91.8501C42.3178 92.2884 39.5989 93.6353 37.5478 95.5773C34.3373 98.6174 32.7987 102.516 33.1038 106.837C33.3525 110.357 34.6487 113.12 37.2822 115.743C39.7398 118.19 42.0697 119.342 45.4813 119.795C47.313 120.038 49.7579 119.814 51.4654 119.246C56.0918 117.708 59.6309 113.949 60.8191 109.312C61.5424 106.489 61.204 102.299 60.0773 100.124L59.7321 99.4573L54.0953 105.184L48.4586 110.911L47.486 110.774C46.0647 110.573 44.807 109.966 43.8106 109.002C42.6403 107.869 42.1222 106.806 42.0002 105.289L41.8992 104.034L44.7174 100.832C48.8186 96.1726 51.753 92.4824 51.4396 92.378C49.7532 91.8171 46.8115 91.5731 45.0716 91.8501ZM100.64 91.8687C100.082 91.9711 99.2281 92.1718 98.7416 92.3145L97.8569 92.5737L100.39 95.5067C101.784 97.1198 104.077 99.6688 105.487 101.171C106.897 102.673 108.101 104.099 108.163 104.338C108.348 105.052 107.673 107.239 106.96 108.234C105.825 109.818 102.848 111.199 101.579 110.73C101.33 110.639 99.5581 108.917 97.64 106.904C95.722 104.891 93.2687 102.408 92.188 101.385L90.2233 99.5272L89.8961 100.159C89.254 101.398 88.7807 103.802 88.7807 105.825C88.7807 111.429 91.8274 116.192 96.927 118.559C99.0483 119.544 100.533 119.862 102.971 119.855C105.329 119.848 106.974 119.45 109.255 118.334C110.631 117.661 111.329 117.141 112.719 115.755C114.167 114.309 114.616 113.697 115.4 112.097C116.612 109.624 117.062 107.458 116.892 104.919C116.649 101.304 115.376 98.5549 112.713 95.9005C110.827 94.0196 109.212 93.0404 106.762 92.2916C105.172 91.806 102.125 91.5956 100.64 91.8687ZM52.3924 96.4593C50.7337 98.5537 47.3607 102.522 45.342 104.755C44.9901 105.144 44.9694 105.279 45.1827 105.793C45.4788 106.507 46.3424 107.346 46.9775 107.538C47.3779 107.659 47.7507 107.35 49.6952 105.285C50.9346 103.968 53.3257 101.553 55.0087 99.9177C57.6504 97.3508 58.0384 96.8946 57.8476 96.5791C57.5504 96.0878 54.9217 93.8854 54.642 93.8933C54.5195 93.8967 53.5074 95.0515 52.3924 96.4593ZM93.6312 95.1401C91.618 96.8517 91.5638 96.5793 94.4627 99.3228C95.8583 100.644 98.2273 103.034 99.727 104.635C101.227 106.235 102.54 107.58 102.645 107.623C103.248 107.872 105.006 106.206 104.994 105.396C104.992 105.243 103.929 103.979 102.632 102.587C101.335 101.196 99.1389 98.738 97.7521 97.1244C96.3653 95.5108 95.155 94.1626 95.0624 94.1284C94.9697 94.0942 94.3257 94.5495 93.6312 95.1401Z" fill="#090909"/>
<defs>
<radialGradient id="paint0_radial_2402_2684" cx="0" cy="0" r="1" gradientUnits="userSpaceOnUse" gradientTransform="translate(75 75.5) rotate(90) scale(75)">
<stop offset="0.229" stop-color="#FCEA36" stop-opacity="0.6"/>
<stop offset="1" stop-color="#4B56ED" stop-opacity="0.4"/>
</radialGradient>
</defs>
</svg>
