<svg width="150" height="150" viewBox="0 0 150 150" fill="none" xmlns="http://www.w3.org/2000/svg">
<rect width="150" height="150" rx="20" fill="url(#paint0_radial_2402_2651)"/>
<g clip-path="url(#clip0_2402_2651)">
<g clip-path="url(#clip1_2402_2651)">
<path d="M115.101 122.015H78.3873C74.2693 122.015 70.9053 118.67 70.9053 114.533V50.0754C70.9053 45.9574 74.25 42.5934 78.3873 42.5934H115.101C119.219 42.5934 122.583 45.9381 122.583 50.0754V114.552C122.583 118.67 119.239 122.034 115.101 122.034V122.015ZM78.3873 45.1067C75.642 45.1067 73.4187 47.3301 73.4187 50.0754V114.552C73.4187 117.297 75.642 119.521 78.3873 119.521H115.101C117.847 119.521 120.07 117.297 120.07 114.552V50.0754C120.07 47.3494 117.847 45.1067 115.101 45.1067H78.3873Z" fill="#090909"/>
<path d="M95.2653 87.5433C95.0333 87.5433 94.8013 87.4853 94.5887 87.35C94.0087 86.9827 93.8347 86.2094 94.202 85.61L99.6733 76.9294H92.4233C91.9593 76.9294 91.534 76.678 91.3213 76.2527C91.1087 75.8467 91.128 75.344 91.3987 74.9573L98.262 64.8267C98.6487 64.2467 99.422 64.092 100.002 64.498C100.582 64.8847 100.717 65.6773 100.331 66.238L94.782 74.3967H101.935C102.399 74.3967 102.825 74.648 103.037 75.054C103.25 75.46 103.25 75.9433 102.999 76.33L96.3093 86.944C96.0773 87.3307 95.6713 87.524 95.246 87.524L95.2653 87.5433Z" fill="#090909"/>
<path d="M115.759 122.015H77.7107C73.96 122.015 70.9053 118.96 70.9053 115.209C70.9053 111.459 73.96 108.404 77.7107 108.404H115.759C119.509 108.404 122.564 111.459 122.564 115.209C122.564 118.96 119.509 122.015 115.759 122.015ZM77.73 110.917C75.3713 110.917 73.438 112.851 73.438 115.209C73.438 117.568 75.3713 119.501 77.73 119.501H115.778C118.137 119.501 120.07 117.568 120.07 115.209C120.07 112.851 118.137 110.917 115.778 110.917H77.73Z" fill="#090909"/>
<path d="M91.2633 44.8553H83.5687C82.2927 44.8553 81.2487 43.8113 81.2487 42.5353V40.3119C81.2487 39.0359 82.2927 37.9919 83.5687 37.9919H91.2633C92.5393 37.9919 93.5833 39.0359 93.5833 40.3119V42.5353C93.5833 43.8113 92.5393 44.8553 91.2633 44.8553ZM83.762 42.3419H91.0507V40.5246H83.762V42.3419Z" fill="#090909"/>
<path d="M87.4547 117.027H79.47C78.5033 117.027 77.6913 116.234 77.6913 115.248C77.6913 114.185 78.484 113.392 79.47 113.392H87.4547C88.4213 113.392 89.2333 114.185 89.2333 115.171C89.2333 116.234 88.4407 117.027 87.4547 117.027Z" fill="#090909"/>
<path d="M102.457 117.007C101.471 117.007 100.659 116.195 100.659 115.209C100.659 114.223 101.471 113.411 102.457 113.411C103.443 113.411 104.255 114.223 104.255 115.209C104.255 116.195 103.443 117.007 102.457 117.007Z" fill="#090909"/>
<path d="M108.837 117.007C107.851 117.007 107.039 116.195 107.039 115.209C107.039 114.223 107.851 113.411 108.837 113.411C109.823 113.411 110.635 114.223 110.635 115.209C110.635 116.195 109.823 117.007 108.837 117.007Z" fill="#090909"/>
<path d="M114.773 117.007C113.787 117.007 112.975 116.195 112.975 115.209C112.975 114.223 113.787 113.411 114.773 113.411C115.759 113.411 116.571 114.223 116.571 115.209C116.571 116.195 115.759 117.007 114.773 117.007Z" fill="#090909"/>
<path d="M97.1987 94.7934C86.7973 94.7934 78.3293 86.3254 78.3293 75.924C78.3293 65.5227 86.7973 57.0547 97.1987 57.0547C107.6 57.0547 116.068 65.5227 116.068 75.924C116.068 86.3254 107.6 94.7934 97.1987 94.7934ZM97.1987 59.568C88.1893 59.568 80.8427 66.8954 80.8427 75.924C80.8427 84.9527 88.17 92.28 97.1987 92.28C106.227 92.28 113.555 84.9527 113.555 75.924C113.555 66.8954 106.227 59.568 97.1987 59.568Z" fill="#090909"/>
<path d="M39.566 54.812H34.52C32.142 54.812 30.1893 52.8786 30.1893 50.4813V43.908H43.8773V50.4813C43.8773 52.8593 41.944 54.812 39.5467 54.812H39.566ZM32.7027 46.4406V50.5006C32.7027 51.506 33.5147 52.318 34.5007 52.318H39.5467C40.552 52.318 41.3447 51.506 41.3447 50.5006V46.4406H32.7027Z" fill="#090909"/>
<path d="M42.002 46.518H32.0647V39.964H42.002V46.518ZM34.578 44.0047H39.4887V42.4773H34.578V44.0047Z" fill="#090909"/>
<path d="M45.7333 122.111C40.2427 122.111 35.7767 117.645 35.7767 112.155V53.7487C35.7767 53.0527 36.3373 52.492 37.0333 52.492C37.7293 52.492 38.29 53.0527 38.29 53.7487V112.155C38.29 116.253 41.6347 119.598 45.7333 119.598C49.832 119.598 53.1573 116.273 53.1767 112.193L53.5827 35.1114C53.6213 29.6594 58.0873 25.2127 63.5393 25.1934H78.716C81.384 25.1934 83.878 26.2374 85.7533 28.1127C87.6287 29.988 88.6727 32.5014 88.6727 35.1694V39.2487C88.6727 39.9447 88.112 40.5054 87.416 40.5054C86.72 40.5054 86.1593 39.9447 86.1593 39.2487V35.1694C86.1593 33.178 85.386 31.3027 83.9747 29.8914C82.5633 28.48 80.688 27.7067 78.716 27.7067H63.52C59.4407 27.7067 56.096 31.0514 56.0767 35.1307L55.6707 112.213C55.632 117.684 51.166 122.131 45.714 122.131L45.7333 122.111Z" fill="#090909"/>
</g>
</g>
<defs>
<radialGradient id="paint0_radial_2402_2651" cx="0" cy="0" r="1" gradientUnits="userSpaceOnUse" gradientTransform="translate(75 75) rotate(90) scale(75)">
<stop offset="0.229" stop-color="#FCEA36" stop-opacity="0.6"/>
<stop offset="1" stop-color="#4B56ED" stop-opacity="0.4"/>
</radialGradient>
<clipPath id="clip0_2402_2651">
<rect width="100" height="100" fill="white" transform="translate(25 25)"/>
</clipPath>
<clipPath id="clip1_2402_2651">
<rect width="96.6667" height="96.6667" fill="white" transform="translate(28.3333 25)"/>
</clipPath>
</defs>
</svg>
