<svg width="65" height="65" viewBox="0 0 65 65" fill="none" xmlns="http://www.w3.org/2000/svg">
<rect x="0.666748" y="0.182617" width="64" height="64" rx="8" fill="#E4EDFE"/>
<path d="M50.3779 8H15.6221C14.1825 8 13 9.05094 13 10.3513V46.2081C13 46.2081 13.0171 46.2971 13.0171 46.3327C13.0686 46.6356 13.0857 46.9384 13.1714 47.2412C13.7541 49.4321 15.1765 51.0175 17.473 51.9259C22.5801 53.9565 27.7044 55.9694 32.8286 58H33.1714C38.1414 56.0406 43.0943 54.0812 48.0643 52.1218C48.8355 51.819 49.5895 51.4984 50.2408 50.9996C52.0574 49.6281 53 47.8824 53 45.7449C53 33.953 53 22.161 53 10.3513C53 9.05094 51.8346 8 50.3779 8ZM38.4327 43.358L33 50.7146L27.5673 43.358H24.8595C22.5973 43.358 20.7635 41.7015 20.7635 39.6708L20.7978 16.8172L27.1388 30.6576C27.8243 32.1717 27.1388 33.9174 25.545 34.7011L24.1225 35.3958L28.6641 37.1058L31.7489 29.5354C31.9717 29.0011 32.0574 28.4133 32.006 27.8433L31.2348 18.7054C31.1491 17.7257 31.389 16.7282 31.9032 15.8732L33.0171 14.0207L34.1311 15.8732C34.6452 16.746 34.8852 17.7257 34.7995 18.7054L34.0283 27.8433C33.9769 28.4133 34.0626 28.9833 34.2853 29.5354L35.7421 33.1336L37.3702 37.1058L41.9117 35.3958L40.4893 34.7011C38.8955 33.9174 38.2099 32.1717 38.8955 30.6576L45.2365 16.8172L45.2708 39.6708C45.2708 41.7015 43.437 43.358 41.1748 43.358H38.4327Z" fill="#303034"/>
</svg>
