<svg width="28" height="36" viewBox="0 0 28 36" fill="none" xmlns="http://www.w3.org/2000/svg">
<path d="M23.9142 14.9553C23.9142 14.9553 23.9142 15.9412 23.5284 17.2374L19.2287 12.733C18.9956 12.4884 18.6792 12.3508 18.3492 12.3505H14.53C14.2517 12.3507 13.9815 12.4487 13.7625 12.6287L12.2549 13.865C12.1514 13.95 12.033 14.0127 11.9064 14.0496C11.7798 14.0866 11.6474 14.097 11.5169 14.0802C11.3865 14.0635 11.2604 14.02 11.146 13.9522C11.0316 13.8844 10.9311 13.7936 10.8502 13.685C10.6868 13.4655 10.6131 13.187 10.6453 12.9106C10.6775 12.6342 10.8129 12.3825 11.0219 12.2105L16.1662 8H17.2764C19.0369 8 20.7252 8.73278 21.97 10.0371C23.2149 11.3415 23.9142 13.1106 23.9142 14.9553ZM6.80861 17.8504C6.7256 17.7632 6.62699 17.694 6.51843 17.6468C6.40987 17.5996 6.29348 17.5753 6.17595 17.5753C6.05841 17.5753 5.94203 17.5996 5.83346 17.6468C5.7249 17.694 5.62629 17.7632 5.54328 17.8504L4.26219 19.198C4.09428 19.3746 4 19.6137 4 19.8631C4 20.1124 4.09428 20.3515 4.26219 20.5281C4.3452 20.6153 4.44381 20.6845 4.55237 20.7317C4.66093 20.7789 4.77732 20.8032 4.89485 20.8032C5.01239 20.8032 5.12877 20.7789 5.23734 20.7317C5.3459 20.6845 5.44451 20.6153 5.52752 20.5281L6.80861 19.1806C6.97647 19.0041 7.07073 18.7651 7.07073 18.5159C7.07073 18.2667 6.97647 18.0277 6.80861 17.8512M8.13285 19.6674C8.21582 19.58 8.31446 19.5106 8.42311 19.4633C8.53175 19.4159 8.64826 19.3916 8.76593 19.3916C8.8836 19.3916 9.0001 19.4159 9.10875 19.4633C9.2174 19.5106 9.31604 19.58 9.39901 19.6674C9.56667 19.844 9.66078 20.083 9.66078 20.3321C9.66078 20.5812 9.56667 20.8202 9.39901 20.9968L8.11626 22.3417C8.0333 22.429 7.93471 22.4983 7.82614 22.5456C7.71757 22.5928 7.60116 22.6172 7.48359 22.6172C7.36602 22.6172 7.24961 22.5928 7.14104 22.5456C7.03247 22.4983 6.93388 22.429 6.85093 22.3417C6.68327 22.1651 6.58915 21.9262 6.58915 21.6771C6.58915 21.428 6.68327 21.189 6.85093 21.0124L8.13285 19.6674ZM11.5488 21.9253C11.4658 21.8381 11.3672 21.7689 11.2586 21.7217C11.1501 21.6745 11.0337 21.6502 10.9162 21.6502C10.7986 21.6502 10.6822 21.6745 10.5737 21.7217C10.4651 21.7689 10.3665 21.8381 10.2835 21.9253L9.0024 23.2711C8.83429 23.4476 8.73987 23.6868 8.73987 23.9362C8.73987 24.1856 8.83429 24.4248 9.0024 24.6013C9.08535 24.6886 9.18394 24.7579 9.29251 24.8052C9.40109 24.8524 9.5175 24.8768 9.63506 24.8768C9.75263 24.8768 9.86904 24.8524 9.97761 24.8052C10.0862 24.7579 10.1848 24.6886 10.2677 24.6013L11.5488 23.2546C11.7167 23.078 11.811 22.8388 11.811 22.5895C11.811 22.3402 11.7167 22.1019 11.5488 21.9253ZM13.6978 24.1814C13.6148 24.094 13.5162 24.0246 13.4075 23.9772C13.2989 23.9299 13.1824 23.9055 13.0647 23.9055C12.9471 23.9055 12.8306 23.9299 12.7219 23.9772C12.6133 24.0246 12.5146 24.094 12.4316 24.1814L11.1506 25.5281C10.9829 25.7047 10.8888 25.9437 10.8888 26.1928C10.8888 26.4419 10.9829 26.6808 11.1506 26.8574C11.2335 26.9447 11.3321 27.014 11.4407 27.0613C11.5492 27.1085 11.6657 27.1329 11.7832 27.1329C11.9008 27.1329 12.0172 27.1085 12.1258 27.0613C12.2343 27.014 12.3329 26.9447 12.4159 26.8574L13.697 25.5107C13.8648 25.3342 13.9591 25.0952 13.9591 24.8461C13.9591 24.5969 13.8648 24.3579 13.697 24.1814M13.1601 8.25387C12.7231 8.1186 12.2732 8.03405 11.8185 8.00174L11.7438 8H11.4683C9.70789 8 8.01954 8.73278 6.77471 10.0371C5.52989 11.3415 4.83055 13.1106 4.83055 14.9553V16.7697C5.24071 16.42 5.76022 16.2425 6.28826 16.2716C6.8163 16.3007 7.3152 16.5343 7.68812 16.9271C8.0142 17.2705 8.21333 17.6974 8.28469 18.1425C8.59947 18.0669 8.92649 18.067 9.24125 18.1426C9.55602 18.2183 9.85036 18.3676 10.1023 18.5793C10.3541 18.7911 10.5571 19.0598 10.6958 19.3654C10.8345 19.671 10.9054 20.0055 10.9033 20.3438C11.1864 20.3424 11.4669 20.3999 11.7286 20.5129C11.9904 20.6259 12.2281 20.7921 12.4282 21.002C12.6282 21.2119 12.7865 21.4613 12.8939 21.7357C13.0013 22.0102 13.0557 22.3042 13.0539 22.6008C13.3364 22.5994 13.6162 22.6567 13.8773 22.7696C14.1384 22.8824 14.3755 23.0485 14.5748 23.2581C14.9756 23.6801 15.2006 24.2512 15.2006 24.8465C15.2006 25.4418 14.9756 26.0129 14.5748 26.4349L14.3881 26.6314L15.4452 27.7303C15.6128 27.9031 15.8386 28 16.0737 28C16.3089 28 16.5346 27.9031 16.7022 27.7303C17.0457 27.3739 17.0466 26.7966 16.7039 26.4392C16.5862 26.3169 16.5196 26.1506 16.5189 25.9769C16.5182 25.8032 16.5834 25.6363 16.7002 25.5129C16.8169 25.3895 16.9756 25.3198 17.1414 25.3191C17.3072 25.3183 17.4665 25.3867 17.5842 25.509C17.7519 25.6818 17.9776 25.7787 18.2127 25.7787C18.4479 25.7787 18.6736 25.6818 18.8413 25.509C18.9228 25.4245 18.9876 25.324 19.0319 25.2131C19.0761 25.1023 19.099 24.9833 19.099 24.8632C19.0991 24.743 19.0764 24.6241 19.0323 24.5131C18.9882 24.4022 18.9236 24.3016 18.8421 24.217C18.7318 24.0931 18.6715 23.9293 18.674 23.7599C18.6765 23.5905 18.7414 23.4286 18.8553 23.3083C18.9692 23.188 19.1231 23.1185 19.2847 23.1145C19.4464 23.1105 19.6033 23.1722 19.7224 23.2868C19.8902 23.4591 20.1159 23.5555 20.3509 23.5552C20.5858 23.5548 20.8113 23.4578 20.9786 23.285C21.3304 22.9199 21.3288 22.327 20.9927 21.9766L20.9902 21.9748L19.1209 20.0152C19.011 19.8916 18.9511 19.7281 18.954 19.5592C18.9568 19.3902 19.0221 19.2291 19.1361 19.1096C19.2501 18.9901 19.404 18.9217 19.5652 18.9187C19.7264 18.9157 19.8824 18.9784 20.0004 19.0936L22.1875 21.3828C22.6248 21.8375 23.3458 21.8418 23.725 21.448C24.1025 21.0559 24.0992 20.3117 23.6661 19.8604L23.6644 19.8587L18.1584 14.0902H14.6736L13.278 15.2343C13.0029 15.4599 12.6881 15.6265 12.3515 15.7245C12.015 15.8225 11.6633 15.8502 11.3165 15.8058C10.9698 15.7613 10.6348 15.6458 10.3307 15.4657C10.0266 15.2856 9.75936 15.0445 9.54421 14.7562C9.10949 14.1733 8.91336 13.4335 8.99893 12.6993C9.0845 11.965 9.44476 11.2964 10.0006 10.8404L13.1601 8.25387Z" fill="#4A55ED"/>
</svg>
