<svg width="64" height="65" viewBox="0 0 64 65" fill="none" xmlns="http://www.w3.org/2000/svg">
<rect y="0.182617" width="64" height="64" rx="8" fill="#E4EDFE"/>
<path d="M41.8093 17.1826H28.2995V27.176H5V39.6826H9.91443C9.91443 41.6773 10.6976 43.5722 12.0682 44.9885C13.4583 46.4047 15.3183 47.1826 17.2763 47.1826C19.2342 47.1826 21.0943 46.3847 22.4844 44.9885C23.8745 43.5722 24.6381 41.6773 24.6381 39.6826H39.3619C39.3619 41.6773 40.145 43.5722 41.5156 44.9885C42.8862 46.4047 44.7658 47.1826 46.7237 47.1826C48.6817 47.1826 50.5417 46.3847 51.9318 44.9885C53.322 43.5922 54.0856 41.6773 54.0856 39.6826H59V32.1826C59 29.41 56.8071 27.176 54.0856 27.176H49.1711L41.8093 17.1826ZM32 20.9326H40.5954L45.4119 27.176H32.0196V20.9326H32ZM17.2763 35.9326C18.2553 35.9326 19.1951 36.3316 19.8803 37.0297C20.5656 37.7278 20.9572 38.6853 20.9572 39.6826C20.9572 40.68 20.5656 41.6374 19.8803 42.3355C19.1951 43.0337 18.2553 43.4326 17.2763 43.4326C16.2973 43.4326 15.3575 43.0337 14.6722 42.3355C13.9869 41.6374 13.5954 40.68 13.5954 39.6826C13.5954 38.6853 13.9869 37.7278 14.6722 37.0297C15.3575 36.3316 16.2973 35.9326 17.2763 35.9326ZM46.7237 35.9326C47.7027 35.9326 48.6425 36.3316 49.3278 37.0297C50.0131 37.7278 50.4046 38.6853 50.4046 39.6826C50.4046 40.68 50.0131 41.6374 49.3278 42.3355C48.6425 43.0337 47.7027 43.4326 46.7237 43.4326C45.7447 43.4326 44.8049 43.0337 44.1196 42.3355C43.4344 41.6374 43.0428 40.68 43.0428 39.6826C43.0428 38.6853 43.4344 37.7278 44.1196 37.0297C44.8049 36.3316 45.7447 35.9326 46.7237 35.9326Z" fill="#303034"/>
</svg>
