<svg width="66" height="65" viewBox="0 0 66 65" fill="none" xmlns="http://www.w3.org/2000/svg">
<rect x="0.833252" y="0.182617" width="65" height="64" rx="8" fill="#E4EDFE"/>
<path d="M51.4826 43.8411C52.7072 43.8411 53.749 44.2477 54.5898 45.0786C55.4306 45.9094 55.851 46.864 55.8327 47.9777L38.67 54.1826L23.7007 50.046V31.4313H27.868L43.4039 36.9998C44.5189 37.4241 45.0672 38.2019 45.0672 39.3156C45.0672 39.9697 44.8296 40.5354 44.3361 41.0127C43.8426 41.49 43.2394 41.7551 42.49 41.7728H36.5133L32.7664 40.3939L32.0535 42.3385L36.495 43.8411H51.4826ZM39.3097 12.7282C40.8268 11.0312 42.7459 10.1826 45.0855 10.1826C47.0229 10.1826 48.6679 10.8721 50.0021 12.2509C51.3364 13.6298 52.0492 15.2208 52.1406 17.0062C52.1406 18.4205 51.4278 20.1175 50.0021 22.0974C48.5765 24.0774 47.1691 25.7214 45.7983 27.0472C44.4092 28.3731 42.2524 30.3353 39.328 32.9339C36.367 30.3353 34.192 28.3731 32.7846 27.0472C31.3955 25.7214 29.9882 24.0774 28.5808 22.0974C27.1734 20.1175 26.4789 18.4381 26.5154 17.0062C26.5154 15.1324 27.21 13.5414 28.5808 12.2509C29.9699 10.9604 31.6332 10.271 33.5889 10.1826C35.8736 10.1826 37.7927 11.0312 39.3463 12.7282H39.3097ZM10.8333 31.4313H19.4237V54.1826H10.8333V31.4313Z" fill="#303034"/>
</svg>
