<svg width="197.077148" height="146.400391" viewBox="0 0 197.077 146.4" fill="none" xmlns="http://www.w3.org/2000/svg" xmlns:xlink="http://www.w3.org/1999/xlink">
	<desc>
			Created with Pixso.
	</desc>
	<defs>
		<linearGradient x1="7.038406" y1="7.039932" x2="190.038361" y2="139.363068" id="paint_linear_2944_3991_0" gradientUnits="userSpaceOnUse">
			<stop stop-color="#95E42D"/>
			<stop offset="0.299000" stop-color="#89D13D"/>
			<stop offset="0.634000" stop-color="#78C55B"/>
			<stop offset="1.000000" stop-color="#60AD83"/>
		</linearGradient>
	</defs>
	<path id="Vector" d="M13.13 13.3L183.93 13.3C187.56 13.3 190.5 16.28 190.5 19.96L190.5 126.43C190.5 130.11 187.56 133.09 183.93 133.09L13.13 133.09C9.51 133.09 6.57 130.11 6.57 126.43L6.57 19.96C6.57 16.28 9.51 13.3 13.13 13.3Z" fill="url(#paint_linear_2944_3991_0)" fill-opacity="1.000000" fill-rule="evenodd"/>
	<path id="Vector" d="M6.57 31.71L6.57 19.96L190.5 19.96L190.5 31.71L108.68 81.45C105.61 83.31 102.11 84.3 98.53 84.3C94.96 84.3 91.46 83.31 88.39 81.45L6.57 31.71Z" fill="#53B125" fill-opacity="1.000000" fill-rule="nonzero"/>
	<path id="Vector" d="M6.57 23.95L6.57 13.31C6.57 11.54 7.26 9.85 8.49 8.6C9.72 7.35 11.39 6.65 13.13 6.65L183.93 6.65C185.68 6.65 187.35 7.35 188.58 8.6C189.81 9.85 190.5 11.54 190.5 13.31L190.5 23.95L105.29 75.75C103.25 76.99 100.92 77.64 98.53 77.64C96.15 77.64 93.82 76.99 91.77 75.75L6.57 23.95Z" fill="#83D045" fill-opacity="1.000000" fill-rule="nonzero"/>
	<path id="UAH" d="M163.45 119.49L163.45 112.85L164.68 112.85L164.68 119.59C164.68 121.68 163.12 123.21 160.73 123.21C158.33 123.21 156.77 121.68 156.77 119.59L156.77 112.85L158 112.85L158 119.49C158 120.99 159.02 122.06 160.73 122.06C162.42 122.06 163.45 120.99 163.45 119.49ZM168.59 120.15L167.57 123.03L166.27 123.03L170.01 112.85L171.28 112.85L175.02 123.03L173.73 123.03L172.71 120.15L168.59 120.15ZM177.84 123.03L176.61 123.03L176.61 112.85L177.84 112.85L177.84 117.39L183.28 117.39L183.28 112.85L184.51 112.85L184.51 123.03L183.28 123.03L183.28 118.48L177.84 118.48L177.84 123.03ZM170.61 114.46L168.98 119.06L172.32 119.06L170.69 114.46L170.61 114.46Z" fill="#FCFCFC" fill-opacity="1.000000" fill-rule="evenodd"/>
	<path id="UAH" d="M163.45 112.85L163.45 119.49C163.45 120.99 162.42 122.06 160.73 122.06C159.02 122.06 158 120.99 158 119.49L158 112.85L156.77 112.85L156.77 119.59C156.77 121.68 158.33 123.21 160.73 123.21C163.12 123.21 164.68 121.68 164.68 119.59L164.68 112.85L163.45 112.85ZM167.57 123.03L168.59 120.15L172.71 120.15L173.73 123.03L175.02 123.03L171.28 112.85L170.01 112.85L166.27 123.03L167.57 123.03ZM168.98 119.06L170.61 114.46L170.69 114.46L172.32 119.06L168.98 119.06ZM176.61 123.03L177.84 123.03L177.84 118.48L183.28 118.48L183.28 123.03L184.51 123.03L184.51 112.85L183.28 112.85L183.28 117.39L177.84 117.39L177.84 112.85L176.61 112.85L176.61 123.03Z" stroke="#1A191C" stroke-opacity="1.000000" stroke-width="0.300000"/>
	<path id="Exclude" d="M13.5381 104.039L36.1235 104.039L36.5381 126.625L25.0381 126.625C25.0381 126.625 25.2451 121.029 23.8984 119.166C22.5518 117.301 21.2227 116.221 18.9253 115.436C16.9312 114.754 13.5381 115.125 13.5381 115.125L13.5381 104.039ZM29.8037 121.963L31.4614 121.963L31.1509 108.908L18.3037 108.908L18.3037 110.67C19.1455 110.674 22.6553 111.395 24.8311 113.053C27.0063 114.711 28.1309 115.934 29.0786 118.439C29.5757 119.754 29.8037 121.963 29.8037 121.963Z" clip-rule="evenodd" fill="#FCFCFC" fill-opacity="1.000000" fill-rule="evenodd"/>
	<rect id="Rectangle 345" x="13.538086" y="117.507812" width="9.117117" height="9.117117" fill="#FCFCFC" fill-opacity="1.000000"/>
</svg>
