<svg width="202.000000" height="40.000000" viewBox="0 0 202 40" fill="none" xmlns="http://www.w3.org/2000/svg" xmlns:xlink="http://www.w3.org/1999/xlink">
	<desc>
			Created with Pixso.
	</desc>
	<defs>
		<clipPath id="clip2944_6118">
			<rect id="Monobank logo" rx="0.000000" width="201.000000" height="39.000000" transform="translate(0.500000 0.500000)" fill="white" fill-opacity="0"/>
		</clipPath>
	</defs>
	<rect id="Monobank logo" rx="0.000000" width="201.000000" height="39.000000" transform="translate(0.500000 0.500000)" fill="#FFFFFF" fill-opacity="0"/>
	<g clip-path="url(#clip2944_6118)">
		<path id="Vector" d="M30.89 32.34L30.89 15.42C30.89 10.62 28.6 8.34 24.89 8.34C21.8 8.34 19 10.51 17.79 12.57C17 9.94 15.1 8.34 12.1 8.34C9 8.34 6.19 10.62 5.39 12L5.39 8.91L0 8.91L0 32.34L5.39 32.34L5.39 16.57C6.19 15.31 7.8 13.82 9.6 13.82C11.8 13.82 12.7 15.42 12.7 17.59L12.7 32.45L18.1 32.45L18.1 16.57C18.89 15.31 20.39 13.82 22.3 13.82C24.5 13.82 25.39 15.42 25.39 17.59L25.39 32.45L30.89 32.45L30.89 32.34ZM45.7 32.91C38.89 32.91 34.89 27.31 34.89 20.57C34.89 13.94 39 8.34 45.7 8.34C52.5 8.34 56.6 13.94 56.6 20.57C56.6 27.31 52.5 32.91 45.7 32.91ZM45.7 27.42C49.1 27.42 51 24.22 51 20.57C51 16.91 49.1 13.82 45.7 13.82C42.3 13.82 40.5 17.02 40.5 20.57C40.5 24.34 42.39 27.42 45.7 27.42ZM79.8 32.34L79.8 15.77C79.8 11.2 77.6 8.34 73.1 8.34C69.69 8.34 67.19 10.17 65.89 12L65.89 8.91L60.5 8.91L60.5 32.34L66 32.34L66 16.57C66.89 15.2 68.5 13.82 70.69 13.82C73 13.82 74.5 14.97 74.5 18.17L74.5 32.34L79.8 32.34ZM94.7 32.91C87.89 32.91 83.89 27.31 83.89 20.57C83.89 13.94 88 8.34 94.7 8.34C101.5 8.34 105.6 13.94 105.6 20.57C105.6 27.31 101.5 32.91 94.7 32.91ZM94.7 27.42C98.1 27.42 100 24.22 100 20.57C100 16.91 98.1 13.82 94.7 13.82C91.3 13.82 89.5 17.02 89.5 20.57C89.5 24.34 91.3 27.42 94.7 27.42ZM115 24.91C115.9 26.4 117.9 27.54 119.6 27.54C122.7 27.54 124.8 24.79 124.8 20.79C124.8 16.68 122.7 13.94 119.6 13.94C117.9 13.94 115.9 15.08 115 16.68L115 24.91ZM115 32.34L109.6 32.34L109.6 0L115 0L115 12C116.6 9.59 118.9 8.45 121.3 8.45C126.5 8.45 130.39 13.14 130.39 20.79C130.39 28.57 126.5 33.02 121.3 33.02C118.8 33.02 116.6 31.77 115 29.48L115 32.34ZM152.2 32.34L146.8 32.34L146.8 29.94C145.39 31.88 143 32.91 140.3 32.91C137 32.91 133.2 30.4 133.2 25.14C133.2 19.65 137.1 17.59 140.3 17.59C143 17.59 145.39 18.62 146.8 20.45L146.8 17.25C146.8 14.85 145 13.37 142.3 13.37C140.1 13.37 138.1 14.28 136.3 16.11L134.3 12C136.8 9.48 140 8.34 143.3 8.34C148 8.34 152.3 10.51 152.3 17.25L152.3 32.34L152.2 32.34ZM142.39 28.79C144.1 28.79 145.8 28.11 146.7 26.74L146.7 23.88C145.8 22.51 144.1 21.82 142.39 21.82C140.3 21.82 138.5 23.08 138.5 25.37C138.6 27.54 140.3 28.79 142.39 28.79ZM176.8 32.34L176.8 15.77C176.8 11.2 174.6 8.34 170.1 8.34C166.7 8.34 164.2 10.17 162.89 12L162.89 8.91L157.5 8.91L157.5 32.34L162.89 32.34L162.89 16.57C163.8 15.2 165.4 13.82 167.6 13.82C169.9 13.82 171.4 14.97 171.4 18.17L171.4 32.34L176.8 32.34ZM202.2 32.34L193.8 19.54L201.9 8.91L195.3 8.91L187.5 19.31L187.5 0L182.1 0L182.1 32.34L187.5 32.34L187.5 26.28L190 23.31L195.4 32.34L202.2 32.34Z" fill="#1A191C" fill-opacity="1.000000" fill-rule="evenodd"/>
	</g>
</svg>
