<svg width="200.000000" height="40.000000" viewBox="0 0 200 40" fill="none" xmlns="http://www.w3.org/2000/svg" xmlns:xlink="http://www.w3.org/1999/xlink">
	<desc>
			Created with Pixso.
	</desc>
	<defs>
		<clipPath id="clip2944_3982">
			<rect id="Privat logo" rx="0.000000" width="199.000000" height="39.000000" transform="translate(0.500000 0.500000)" fill="white" fill-opacity="0"/>
		</clipPath>
	</defs>
	<rect id="Privat logo" rx="0.000000" width="199.000000" height="39.000000" transform="translate(0.500000 0.500000)" fill="#FFFFFF" fill-opacity="0"/>
	<g clip-path="url(#clip2944_3982)">
		<path id="Vector" d="M0.62 9.2L0.62 17.61L3.15 17.66C5.9 17.71 7 17.88 8.48 18.44C11.64 19.63 13.69 22.07 14.73 25.86C15.2 27.61 15.33 28.8 15.37 32.19L15.41 35.33L22.43 35.33L29.45 35.33L29.45 18.06L29.45 0.8L15.04 0.8L0.62 0.8L0.62 9.2ZM6.55 9.34L6.58 10.71L7.29 10.85C12.98 11.95 17.07 15.3 19.33 20.69C20.2 22.77 20.71 24.68 21.03 27.07L21.18 28.2L22.32 28.23L23.45 28.25L23.45 18.12L23.45 7.98L14.99 7.98L6.53 7.98L6.55 9.34ZM33.3 24.98L33.3 35.33L35.71 35.33L38.13 35.33L38.15 26.99L38.18 18.65L42.07 18.65L45.97 18.65L45.99 26.99L46.01 35.33L48.43 35.33L50.84 35.33L50.84 24.98L50.84 14.63L42.07 14.63L33.3 14.63L33.3 24.98ZM132.39 24.99L132.39 35.34L138.24 35.3C143.16 35.26 144.2 35.23 144.89 35.08C147.32 34.55 148.95 33.39 149.67 31.68C150.2 30.43 150.31 28.76 149.98 27.2C149.42 24.63 147.48 22.97 144.44 22.47C144.06 22.4 142.33 22.35 140.53 22.35L137.32 22.35L137.32 20.47L137.32 18.6L142.91 18.6L148.51 18.6L148.51 16.61L148.51 14.63L140.45 14.63L132.39 14.63L132.39 24.99ZM60.74 19.93C59.67 20.22 58.38 21.03 57.83 21.75C57.48 22.21 57.42 22.12 57.45 21.17L57.48 20.31L55.37 20.31L53.26 20.31L53.26 30.55L53.26 40.8L55.5 40.8L57.74 40.8L57.74 37.31L57.74 33.82L58.21 34.28C59.53 35.57 61.72 36.13 63.76 35.7C67.15 35 69.18 32.05 69.19 27.82C69.2 23.92 67.47 21 64.58 20.04C63.85 19.8 61.47 19.73 60.74 19.93ZM107.82 19.84C106.01 20.16 104.61 20.87 103.74 21.95C103.26 22.53 102.79 23.72 102.71 24.52L102.65 25.14L104.81 25.14L106.97 25.14L106.97 24.79C106.98 24.32 107.31 23.65 107.68 23.34C108.21 22.91 108.87 22.75 109.87 22.8C110.96 22.85 111.52 23.11 111.85 23.73C112.1 24.21 112.19 24.96 112.05 25.46C111.83 26.2 111.43 26.35 108.94 26.64C105.53 27.04 103.76 27.69 102.8 28.91C102.15 29.73 101.93 30.48 101.98 31.68C102.06 33.72 103.08 35.02 105.06 35.61C106.02 35.9 108.38 35.87 109.4 35.57C110.35 35.28 111.21 34.81 111.81 34.24C112.06 34 112.28 33.82 112.3 33.84C112.31 33.86 112.4 34.19 112.5 34.58L112.67 35.27L114.98 35.3C116.26 35.32 117.33 35.29 117.37 35.24C117.42 35.19 117.3 35.03 117.12 34.89C116.54 34.43 116.53 34.35 116.58 29.21C116.6 26.58 116.59 24.39 116.54 24.02C116.34 22.57 115.63 21.48 114.38 20.75C113.19 20.05 112.37 19.87 110.06 19.83C108.98 19.81 107.97 19.82 107.82 19.84ZM156.43 19.94C153.64 20.56 152.08 22.14 151.78 24.63L151.72 25.14L153.87 25.14L156.01 25.14L156.07 24.73C156.25 23.47 157.21 22.78 158.8 22.78C159.67 22.78 160.08 22.89 160.51 23.24C161 23.64 161.16 24 161.2 24.74C161.26 26.08 160.94 26.3 158.45 26.58C153.9 27.11 152.05 27.97 151.32 29.91C150.6 31.83 151.28 34.08 152.89 35.06C155.12 36.41 159.31 35.96 160.94 34.2C161.13 33.99 161.31 33.83 161.34 33.83C161.37 33.83 161.48 34.16 161.59 34.58L161.79 35.33L164.15 35.33C166.66 35.33 166.81 35.29 166.21 34.84C165.64 34.42 165.65 34.51 165.65 28.84C165.65 23.08 165.67 23.25 165 22.19C164.34 21.15 163.31 20.46 161.76 20.04C160.81 19.78 157.43 19.72 156.43 19.94ZM70.29 25.81C70.33 30.65 70.35 31.38 70.49 31.95C70.87 33.53 71.59 34.62 72.61 35.2C73.49 35.69 74.03 35.81 75.42 35.81C76.44 35.8 76.8 35.76 77.38 35.56C78.27 35.26 79.12 34.73 79.84 34.03L80.38 33.5L80.38 34.41L80.38 35.33L82.62 35.33L84.86 35.33L84.86 27.82L84.86 20.31L82.63 20.31L80.4 20.31L80.36 25.11C80.33 29.8 80.33 29.93 80.13 30.58C79.71 31.94 78.83 32.72 77.57 32.83C76.35 32.94 75.51 32.43 75.09 31.33L74.88 30.77L74.85 25.54L74.83 20.31L72.54 20.31L70.26 20.31L70.29 25.81ZM86.83 27.82L86.83 35.33L91.61 35.33C96.38 35.33 97.75 35.25 98.78 34.94C99.86 34.6 100.58 34 100.95 33.1C101.17 32.55 101.2 32.37 101.2 31.41C101.2 30.45 101.17 30.27 100.95 29.73C100.55 28.76 99.75 28.12 98.51 27.76C97.59 27.5 97.57 27.49 98.13 27.33C99.64 26.9 100.59 25.73 100.68 24.18C100.79 22.39 100.02 21.2 98.39 20.59C97.83 20.39 97.53 20.37 92.31 20.34L86.83 20.3L86.83 27.82ZM117.09 21.82L117.09 23.32L119.59 23.32L122.1 23.32L122.1 29.32L122.1 35.33L124.34 35.33L126.58 35.33L126.58 29.32L126.58 23.32L129.08 23.32L131.59 23.32L131.59 21.82L131.59 20.31L124.34 20.31L117.09 20.31L117.09 21.82ZM167.67 27.82L167.67 35.33L169.9 35.33L172.14 35.33L172.14 32.16L172.14 29L174.87 29L177.6 29L177.6 32.16L177.6 35.33L179.84 35.33L182.08 35.33L182.08 27.82L182.08 20.31L179.84 20.31L177.6 20.31L177.6 23.1L177.6 25.89L174.87 25.89L172.14 25.89L172.14 23.1L172.14 20.31L169.9 20.31L167.67 20.31L167.67 27.82ZM184.05 27.82L184.05 35.33L186.29 35.33L188.52 35.33L188.52 32.06C188.52 30.26 188.55 28.79 188.59 28.79C188.63 28.8 189.74 30.27 191.06 32.06L193.47 35.33L196.06 35.33C197.53 35.33 198.64 35.29 198.62 35.23C198.61 35.18 197.17 33.39 195.43 31.26C193.69 29.13 192.28 27.34 192.3 27.3C192.32 27.25 193.58 25.8 195.1 24.07C196.63 22.34 198 20.79 198.15 20.62L198.41 20.31L195.9 20.31L193.4 20.31L190.98 23.33L188.57 26.36L188.54 23.33L188.52 20.31L186.28 20.31L184.05 20.31L184.05 27.82ZM0.62 28.57L0.62 35.33L6.26 35.33L11.9 35.33L11.9 28.57L11.9 21.82L6.26 21.82L0.62 21.82L0.62 28.57ZM59.82 22.97C58.29 23.63 57.54 25.18 57.54 27.7C57.54 29.65 57.92 30.95 58.75 31.86C59.41 32.58 59.97 32.81 61.05 32.8C61.71 32.79 62.02 32.74 62.41 32.55C63.33 32.12 64.07 30.99 64.37 29.54C64.53 28.78 64.53 26.76 64.37 26C64.09 24.64 63.45 23.65 62.49 23.12C61.81 22.75 60.52 22.67 59.82 22.97ZM91.31 24.78L91.31 26.24L93.07 26.18C94.51 26.14 94.93 26.09 95.28 25.93C95.84 25.67 96.1 25.27 96.08 24.68C96.07 24.32 96.02 24.18 95.76 23.9C95.33 23.42 94.81 23.32 92.91 23.32L91.31 23.32L91.31 24.78ZM137.32 28.79L137.32 31.25L139.89 31.25C142.75 31.25 143.42 31.15 144.12 30.63C144.59 30.29 144.82 29.86 144.89 29.2C145.01 28.18 144.52 27.2 143.69 26.77C142.99 26.41 142.24 26.32 139.71 26.32L137.32 26.32L137.32 28.79ZM111.49 28.42C111.14 28.55 110.4 28.74 109.83 28.83C108.09 29.13 107.34 29.41 106.95 29.93C106.69 30.28 106.51 30.94 106.57 31.33C106.83 33.03 109.71 33.38 111.14 31.87C111.36 31.64 111.64 31.25 111.76 31C112.02 30.46 112.19 29.47 112.15 28.73L112.12 28.18L111.49 28.42ZM160.58 28.42C160.25 28.56 159.4 28.76 158.68 28.89C156.83 29.21 156.12 29.56 155.82 30.32C155.46 31.23 155.73 32.07 156.55 32.51C157.24 32.9 158.5 32.92 159.25 32.56C160.63 31.91 161.28 30.69 161.2 28.89L161.17 28.18L160.58 28.42ZM91.31 30.65L91.31 32.32L92.85 32.32C95.8 32.32 96.63 31.95 96.61 30.65C96.6 30.01 96.4 29.67 95.82 29.32C95.39 29.06 95.31 29.05 93.34 29.02L91.31 28.98L91.31 30.65Z" fill="#53B125" fill-opacity="1.000000" fill-rule="evenodd"/>
		<path id="Vector" d="M0.62 26.75L0.62 33L6.25 33L11.87 33L11.87 26.75L11.87 20.5L6.25 20.5L0.62 20.5L0.62 26.75Z" fill="#000000" fill-opacity="1.000000" fill-rule="evenodd"/>
	</g>
</svg>
