<svg width="161" height="160" viewBox="0 0 161 160" fill="none" xmlns="http://www.w3.org/2000/svg">
<path d="M84.22 19.8799C81.7942 19.059 79.1657 19.059 76.74 19.8799L31.5667 35.1799C30.0953 35.6579 28.7958 36.5556 27.8281 37.7626C26.8603 38.9696 26.2666 40.4332 26.12 41.9732C23.8733 70.1466 27.7733 90.9799 37.0333 106.72C45.9933 121.953 60.3267 133.027 80.48 141.28C100.653 133.027 115 121.953 123.96 106.72C133.227 90.9866 137.127 70.1466 134.88 41.9732C134.733 40.4332 134.14 38.9696 133.172 37.7626C132.204 36.5556 130.905 35.6579 129.433 35.1799L84.22 19.8799ZM73.5333 10.4132C78.0381 8.88602 82.9204 8.88368 87.4267 10.4066L132.64 25.7066C135.961 26.8126 138.886 28.8664 141.054 31.6148C143.222 34.3631 144.538 37.6859 144.84 41.1732C147.193 70.5732 143.24 93.6799 132.58 111.793C121.887 129.96 104.84 142.447 82.3133 151.32C81.1352 151.784 79.8248 151.784 78.6467 151.32C56.14 142.447 39.1 129.96 28.4133 111.793C17.76 93.6799 13.8067 70.5666 16.1533 41.1732C16.4555 37.6859 17.7716 34.3631 19.9395 31.6148C22.1074 28.8664 25.0322 26.8126 28.3533 25.7066L73.5333 10.4132Z" fill="#090909"/>
<path opacity="0.8" d="M80.5 133.334C114.047 119.734 129.873 95.8803 126.787 50.887C126.44 45.7736 122.947 41.447 118.1 39.7603L85.9667 28.5736C84.209 27.9617 82.3612 27.6485 80.5 27.647V133.334Z" fill="#FFE604"/>
<path opacity="0.8" d="M80.1059 133.334C46.5593 119.734 30.7326 95.8803 33.8193 50.887C34.1659 45.7736 37.6593 41.447 42.5059 39.7603L74.6393 28.5736C76.397 27.9617 78.2447 27.6485 80.1059 27.647V133.334Z" fill="#202DE9"/>
<path d="M120.503 66.6667C120.503 66.6667 120.503 70.4467 118.953 75.4167L101.68 58.1467C100.743 57.2087 99.4723 56.6812 98.1466 56.68H82.8033C81.6852 56.6808 80.5996 57.0564 79.72 57.7467L73.6633 62.4867C73.2476 62.8123 72.7718 63.0529 72.2631 63.1945C71.7544 63.3361 71.2227 63.376 70.6986 63.3119C70.1744 63.2478 69.668 63.081 69.2084 62.821C68.7488 62.561 68.3449 62.2129 68.02 61.7967C67.3634 60.9549 67.0673 59.8871 67.1967 58.8274C67.326 57.7677 67.8702 56.8025 68.71 56.1433L89.3767 40H93.8367C100.909 40 107.692 42.8095 112.693 47.8105C117.694 52.8115 120.503 59.5942 120.503 66.6667ZM51.7833 77.7667C51.4498 77.4324 51.0537 77.1671 50.6175 76.9861C50.1814 76.8052 49.7138 76.712 49.2417 76.712C48.7695 76.712 48.3019 76.8052 47.8658 76.9861C47.4296 77.1671 47.0335 77.4324 46.7 77.7667L41.5533 82.9333C40.8787 83.6105 40.5 84.5275 40.5 85.4833C40.5 86.4392 40.8787 87.3561 41.5533 88.0333C41.8868 88.3676 42.2829 88.6329 42.7191 88.8139C43.1552 88.9948 43.6228 89.088 44.095 89.088C44.5672 89.088 45.0347 88.9948 45.4709 88.8139C45.907 88.6329 46.3032 88.3676 46.6367 88.0333L51.7833 82.8667C52.4577 82.19 52.8363 81.2737 52.8363 80.3183C52.8363 79.363 52.4577 78.4467 51.7833 77.77M57.1033 84.7333C57.4366 84.3981 57.8329 84.1321 58.2694 83.9506C58.7059 83.7691 59.1739 83.6756 59.6467 83.6756C60.1194 83.6756 60.5874 83.7691 61.0239 83.9506C61.4604 84.1321 61.8567 84.3981 62.19 84.7333C62.8635 85.4104 63.2416 86.3266 63.2416 87.2817C63.2416 88.2367 62.8635 89.1529 62.19 89.83L57.0367 94.9867C56.7034 95.3214 56.3073 95.587 55.8711 95.7682C55.435 95.9494 54.9673 96.0427 54.495 96.0427C54.0227 96.0427 53.555 95.9494 53.1188 95.7682C52.6827 95.587 52.2866 95.3214 51.9533 94.9867C51.2798 94.3096 50.9017 93.3934 50.9017 92.4383C50.9017 91.4833 51.2798 90.5671 51.9533 89.89L57.1033 84.7333ZM70.8267 93.39C70.4932 93.0557 70.097 92.7905 69.6609 92.6095C69.2247 92.4285 68.7572 92.3354 68.285 92.3354C67.8128 92.3354 67.3452 92.4285 66.9091 92.6095C66.473 92.7905 66.0768 93.0557 65.7433 93.39L60.5967 98.55C59.9213 99.2268 59.542 100.144 59.542 101.1C59.542 102.056 59.9213 102.973 60.5967 103.65C60.9299 103.985 61.326 104.25 61.7622 104.432C62.1983 104.613 62.666 104.706 63.1383 104.706C63.6106 104.706 64.0783 104.613 64.5145 104.432C64.9506 104.25 65.3467 103.985 65.68 103.65L70.8267 98.4867C71.5012 97.8094 71.88 96.8925 71.88 95.9367C71.88 94.9808 71.5012 94.0672 70.8267 93.39ZM79.46 102.04C79.1267 101.705 78.7304 101.439 78.2939 101.257C77.8574 101.076 77.3894 100.982 76.9166 100.982C76.4439 100.982 75.9759 101.076 75.5394 101.257C75.1029 101.439 74.7066 101.705 74.3733 102.04L69.2267 107.203C68.5531 107.88 68.175 108.797 68.175 109.752C68.175 110.707 68.5531 111.623 69.2267 112.3C69.5599 112.635 69.956 112.9 70.3922 113.082C70.8283 113.263 71.296 113.356 71.7683 113.356C72.2406 113.356 72.7083 113.263 73.1445 113.082C73.5806 112.9 73.9767 112.635 74.31 112.3L79.4566 107.137C80.131 106.46 80.5097 105.544 80.5097 104.588C80.5097 103.633 80.131 102.717 79.4566 102.04M77.3 40.9733C75.5441 40.4547 73.7366 40.1306 71.91 40.0067L71.61 40H70.5033C63.4309 40 56.6481 42.8095 51.6471 47.8105C46.6462 52.8115 43.8367 59.5942 43.8367 66.6667V73.6233C45.4844 72.2826 47.5715 71.602 49.6929 71.7135C51.8142 71.825 53.8185 72.7206 55.3167 74.2267C56.6267 75.5433 57.4267 77.18 57.7133 78.8867C58.9779 78.597 60.2917 78.5972 61.5562 78.8872C62.8207 79.1773 64.0033 79.7497 65.0152 80.5616C66.0272 81.3734 66.8423 82.4037 67.3996 83.5753C67.9569 84.7469 68.2419 86.0293 68.2333 87.3267C69.3706 87.3214 70.4975 87.5417 71.5491 87.9748C72.6006 88.408 73.5558 89.0454 74.3593 89.8501C75.1628 90.6549 75.7988 91.6111 76.2303 92.6633C76.6618 93.7154 76.8804 94.8428 76.8733 95.98C78.0079 95.9745 79.1323 96.1944 80.1811 96.627C81.23 97.0596 82.1825 97.6963 82.9833 98.5C84.5934 100.118 85.4973 102.307 85.4973 104.59C85.4973 106.873 84.5934 109.062 82.9833 110.68L82.2333 111.433L86.48 115.647C87.1534 116.309 88.0602 116.681 89.005 116.681C89.9497 116.681 90.8566 116.309 91.53 115.647C92.91 114.28 92.9133 112.067 91.5366 110.697C91.0637 110.228 90.7964 109.59 90.7936 108.924C90.7908 108.258 91.0527 107.618 91.5217 107.145C91.9906 106.672 92.6283 106.405 93.2944 106.402C93.9604 106.399 94.6003 106.661 95.0733 107.13C95.7467 107.793 96.6536 108.164 97.5983 108.164C98.5431 108.164 99.4499 107.793 100.123 107.13C100.451 106.806 100.711 106.421 100.889 105.996C101.067 105.571 101.159 105.115 101.159 104.654C101.159 104.193 101.068 103.737 100.891 103.312C100.714 102.887 100.454 102.501 100.127 102.177C99.6835 101.702 99.4415 101.073 99.4514 100.424C99.4613 99.7743 99.7223 99.1538 100.18 98.6925C100.637 98.2312 101.255 97.9649 101.905 97.9496C102.554 97.9342 103.185 98.1709 103.663 98.61C104.337 99.2707 105.244 99.6403 106.188 99.639C107.132 99.6378 108.038 99.2658 108.71 98.6033C110.123 97.2033 110.117 94.93 108.767 93.5867L108.757 93.58L101.247 86.0667C100.805 85.5927 100.565 84.9659 100.576 84.3183C100.587 83.6706 100.85 83.0526 101.308 82.5946C101.766 82.1365 102.384 81.8742 103.032 81.8627C103.679 81.8513 104.306 82.0917 104.78 82.5333L113.567 91.31C115.323 93.0533 118.22 93.07 119.743 91.56C121.26 90.0567 121.247 87.2033 119.507 85.4733L119.5 85.4667L97.38 63.35H83.38L77.7733 67.7367C76.6681 68.6015 75.4034 69.2401 74.0514 69.616C72.6993 69.9919 71.2865 70.0978 69.8935 69.9275C68.5006 69.7573 67.1548 69.3142 65.9331 68.6238C64.7114 67.9333 63.6377 67.0089 62.7733 65.9033C61.0269 63.6688 60.239 60.8324 60.5827 58.0172C60.9265 55.2021 62.3738 52.6386 64.6067 50.89L77.3 40.9733Z" fill="#1A191C"/>
</svg>
