<svg width="64.930595" height="74.909180" viewBox="0 0 64.9306 74.9092" fill="none" xmlns="http://www.w3.org/2000/svg" xmlns:xlink="http://www.w3.org/1999/xlink">
	<desc>
			Created with Pixso.
	</desc>
	<defs/>
	<path id="Vector" d="M39.74 7.46C39.74 7.53 39.25 8.69 39.18 8.77C39.15 8.82 39.08 8.97 39.04 9.1C38.98 9.29 38.46 10.51 38.03 11.47C37.98 11.56 37.88 11.8 37.75 12.09C37.67 12.28 37.57 12.5 37.48 12.72C36.79 14.37 36.12 15.88 35.98 16.16C35.91 16.3 35.88 16.42 35.92 16.42C35.96 16.42 36.87 16.04 37.93 15.57C38.12 15.49 38.31 15.41 38.5 15.33C39.36 14.96 40.11 14.63 40.32 14.55C40.35 14.54 40.38 14.53 40.41 14.52C40.62 14.43 40.84 14.33 40.92 14.29C41.01 14.24 41.73 13.92 42.51 13.58C43.3 13.25 44.17 12.88 44.44 12.76L44.92 12.53L44.92 19.99C44.92 25.91 44.89 27.44 44.8 27.44C44.72 27.44 41.13 25.91 40.25 25.5C40.14 25.45 39.66 25.24 39.18 25.02C38.9 24.9 38.68 24.81 38.49 24.73C37.94 24.49 37.66 24.37 36.91 24.02C36.44 23.81 36.04 23.64 35.99 23.64C35.9 23.64 35.96 23.83 36.43 24.89C36.48 25 36.54 25.14 36.62 25.32C36.93 26.02 37.45 27.22 37.92 28.32C38.23 29.02 38.54 29.74 38.81 30.35C39.07 30.95 39.28 31.43 39.38 31.66C39.57 32.12 39.74 32.52 39.74 32.57C39.74 32.6 36.43 32.63 32.36 32.63C32.34 32.63 32.31 32.63 32.29 32.63C28.19 32.63 24.84 32.62 24.84 32.6C24.84 32.58 24.91 32.41 25.01 32.21C25.34 31.52 25.86 30.33 25.86 30.29C25.86 30.25 26.04 29.82 26.27 29.33C26.5 28.84 26.69 28.42 26.69 28.39C26.69 28.36 26.77 28.16 26.87 27.96C26.97 27.75 27.22 27.16 27.43 26.65L27.5 26.49L27.5 26.49C27.84 25.69 27.95 25.42 28.44 24.35C28.6 24 28.72 23.69 28.7 23.68C28.67 23.65 25.11 25.17 24.33 25.54C24.18 25.62 23.55 25.89 22.94 26.15C22.33 26.41 21.41 26.81 20.89 27.03C20.37 27.26 19.9 27.44 19.85 27.44C19.78 27.44 19.75 25.21 19.75 20.03C19.75 15.95 19.79 12.62 19.83 12.62C19.9 12.62 21.56 13.32 22.62 13.79C22.85 13.91 23.68 14.27 24.47 14.6C25.26 14.94 25.97 15.26 26.05 15.3C26.13 15.34 26.56 15.53 27 15.71C27.42 15.89 27.93 16.11 28.18 16.22C28.18 16.22 28.18 16.22 28.18 16.22L28.22 16.24C28.45 16.35 28.66 16.42 28.69 16.4C28.73 16.36 28.36 15.48 27.94 14.61C27.86 14.45 27.62 13.9 27.39 13.36C26.79 11.91 25.22 8.27 25.01 7.85C24.91 7.65 24.84 7.47 24.84 7.46C24.84 7.44 28.19 7.43 32.29 7.43C32.31 7.43 32.34 7.43 32.36 7.43C36.43 7.43 39.74 7.44 39.74 7.46Z" fill="#E7CE32" fill-opacity="1.000000" fill-rule="nonzero"/>
	<path id="Vector" d="M54.01 29.65C55.03 30.29 55.46 31.3 55 32.05C54.79 32.38 54.23 32.72 53.89 32.72C53.63 32.72 53.09 32.33 53.02 32.08C52.99 31.97 52.9 31.89 52.83 31.89C52.64 31.89 51.41 33.15 50.52 34.25C50.28 34.56 49.94 34.95 49.77 35.12C49.55 35.36 49.48 35.48 49.54 35.59C49.67 35.83 51.33 37.59 51.61 37.78C51.91 37.98 52.17 38.42 52.09 38.56C52.06 38.62 51.92 38.65 51.8 38.65C51.58 38.65 51.45 38.55 50.84 37.87C50.6 37.59 49.88 37.02 49.24 36.6L48.87 36.34L48.63 36.6C48.61 36.62 48.57 36.66 48.52 36.71C48.24 37.01 47.52 37.79 46.75 38.61C42.52 43.16 37.18 48.06 33.12 51.13C32.88 51.3 32.64 51.49 32.38 51.67C29.42 53.78 25.4 56.07 23.36 56.75C21.26 57.45 17.95 57.84 16.46 57.56L16.09 57.5L17.62 56.73C19.7 55.68 21.62 54.61 24.14 53.09C27.48 51.08 30.07 49.34 32.36 47.55C33.23 46.87 34.07 46.19 34.88 45.47C37.75 42.96 37.96 42.76 40.57 40.15C42.99 37.73 44.19 36.44 45.38 35.04C45.74 34.6 46.13 34.19 46.22 34.1C46.4 33.95 46.39 33.93 45.92 33.4C45.46 32.89 44.85 32.29 44.21 31.7C43.69 31.22 43.87 30.71 44.43 31.1C44.53 31.18 44.85 31.45 45.11 31.72C45.39 31.99 45.93 32.46 46.33 32.75L47.03 33.29L47.48 32.86C48.51 31.86 51.62 29.61 52.18 29.45C52.61 29.33 53.68 29.45 54.01 29.65Z" fill="#E7CE32" fill-opacity="1.000000" fill-rule="nonzero"/>
	<path id="Vector" d="M14.26 30.28C14.76 30.73 15.36 31.29 15.59 31.5L16.03 31.89L16.13 32.8C16.19 33.29 16.29 34.09 16.34 34.55C16.4 35.02 16.43 35.43 16.4 35.46C16.37 35.49 15.81 35.11 15.15 34.63L13.95 33.74L13.65 31.83C13.48 30.76 13.31 29.78 13.26 29.64C13.22 29.48 13.22 29.39 13.27 29.41C13.32 29.43 13.76 29.81 14.26 30.28Z" fill="#E7CE32" fill-opacity="1.000000" fill-rule="nonzero"/>
	<path id="Vector" d="M17.87 33.61L18.17 33.88L18.27 35.39C18.32 36.23 18.36 36.92 18.34 36.94C18.32 36.96 17.94 36.69 17.48 36.35L16.65 35.72L16.46 33.98C16.36 33.03 16.29 32.23 16.32 32.21C16.33 32.19 16.63 32.44 16.96 32.76C17.3 33.09 17.7 33.47 17.87 33.61Z" fill="#E7CE32" fill-opacity="1.000000" fill-rule="nonzero"/>
	<path id="Vector" d="M14.2 34.04C17.93 36.79 19.47 37.9 19.47 37.84C19.47 37.8 19.27 37.63 19.02 37.47C18.51 37.12 18.52 37.16 18.4 35.13L18.33 34.07L18.88 34.55C19.79 35.33 19.73 35.21 19.77 36.69C19.8 37.83 19.78 38.01 19.66 37.96C19.46 37.89 19.72 38.1 21.23 39.21C21.96 39.75 23.25 40.69 24.09 41.31C25.58 42.42 26.45 43.06 27.89 44.11C28.27 44.39 28.98 44.91 29.47 45.27C29.95 45.62 30.56 46.07 30.81 46.25C31.07 46.44 31.51 46.77 31.81 46.99L32.35 47.4L32.04 47.66C31.87 47.8 31.71 47.91 31.69 47.92C31.64 47.92 30.93 47.39 28.22 45.39C26.29 43.97 25.22 43.18 24.13 42.39C22.29 41.05 16.21 36.58 14.52 35.32C13.66 34.67 12.83 34.07 12.68 33.97L12.41 33.8L12.61 33.67C12.72 33.59 12.81 33.47 12.81 33.37C12.81 33.17 12.91 33.08 13.03 33.18C13.09 33.21 13.61 33.6 14.2 34.04Z" fill="#E7CE32" fill-opacity="1.000000" fill-rule="nonzero"/>
	<path id="Vector" d="M20.51 36.05L20.86 36.37L20.86 37.55L20.86 38.74L20.4 38.45L19.93 38.16L19.93 37.54C19.93 37.2 19.91 36.59 19.87 36.19C19.8 35.36 19.77 35.37 20.51 36.05Z" fill="#E7CE32" fill-opacity="1.000000" fill-rule="nonzero"/>
	<path id="Vector" d="M18.46 38.33C18.79 38.56 19.05 38.78 19.04 38.81C19.03 38.85 18.47 39.03 17.81 39.22L16.59 39.55L15.79 39.11C15.29 38.83 15.05 38.64 15.13 38.61C15.24 38.57 17.64 37.95 17.81 37.92C17.84 37.91 18.13 38.1 18.46 38.33Z" fill="#E7CE32" fill-opacity="1.000000" fill-rule="nonzero"/>
	<path id="Vector" d="M19.72 39.27C19.97 39.45 20.18 39.62 20.2 39.63C20.24 39.67 18.16 40.32 18 40.32C17.86 40.32 16.88 39.75 16.88 39.66C16.88 39.62 18.92 38.99 19.21 38.94C19.25 38.94 19.48 39.08 19.72 39.27Z" fill="#E7CE32" fill-opacity="1.000000" fill-rule="nonzero"/>
	<path id="Vector" d="M16.84 37.13C17.27 37.43 17.6 37.72 17.58 37.76C17.57 37.85 16.39 38.16 15.31 38.37L14.71 38.49L13.74 37.92C13.22 37.62 12.74 37.33 12.7 37.28C12.62 37.21 15.79 36.51 15.99 36.56C16.04 36.57 16.42 36.83 16.84 37.13Z" fill="#E7CE32" fill-opacity="1.000000" fill-rule="nonzero"/>
	<path id="Vector" d="M14.59 35.48L15.81 36.38L15.26 36.5C13.62 36.82 12.58 37 12.4 37.02C12.3 37.02 11.48 36.62 10.59 36.11L8.98 35.18L9.66 35.07C10.87 34.86 12.75 34.6 13.07 34.59C13.32 34.58 13.59 34.73 14.59 35.48Z" fill="#E7CE32" fill-opacity="1.000000" fill-rule="nonzero"/>
	<path id="Vector" d="M42.2 51.64C42.35 51.87 42.63 52.27 42.85 52.55C43.05 52.83 43.49 53.46 43.82 53.94L43.92 54.09C44.42 54.82 44.68 55.2 45.45 56.28C46.82 58.23 47.25 58.86 47.22 58.89C47.21 58.91 46.57 58.72 45.8 58.47C45.48 58.37 45.03 58.23 44.55 58.08C43.89 57.87 43.17 57.64 42.61 57.46C42.32 57.37 42 57.27 41.68 57.17C40.88 56.91 40.04 56.65 39.55 56.49L38.3 56.09L38.67 56C40.76 55.44 41.21 55.33 41.26 55.33C41.42 55.33 41.24 55.15 40.66 54.73C40.31 54.47 40.02 54.24 40.02 54.2C40.02 54.11 40.51 53.4 40.57 53.39C40.6 53.39 40.9 53.59 41.26 53.85C41.61 54.1 41.93 54.31 41.98 54.31C42.07 54.31 42.03 53.08 41.9 51.78C41.88 51.5 41.87 51.26 41.89 51.26C41.91 51.26 42.05 51.43 42.2 51.64Z" fill="#E7CE32" fill-opacity="1.000000" fill-rule="nonzero"/>
	<path id="Vector" d="M37.75 51.36C39.07 52.33 40.21 53.17 40.28 53.25C40.39 53.35 40.38 53.42 40.2 53.7C40.08 53.91 39.96 54.01 39.89 53.97C39.77 53.9 35.9 51.06 35.14 50.5L34.66 50.13L34.95 49.87C35.12 49.72 35.27 49.6 35.3 49.59C35.32 49.59 36.42 50.38 37.75 51.36Z" fill="#E7CE32" fill-opacity="1.000000" fill-rule="nonzero"/>
	<path id="Vector" d="M32.36 2.43C59.58 2.43 62.3 2.43 62.35 2.57C62.45 2.82 62.41 25.89 62.32 27.58C62.26 28.44 62.18 30.22 62.13 31.52C62.09 32.82 61.98 34.5 61.91 35.27C61.84 36.03 61.74 37.01 61.72 37.44C61.69 37.88 61.64 38.26 61.61 38.29C61.6 38.33 61.49 39.01 61.39 39.78C61.29 40.56 61.14 41.49 61.08 41.85C61 42.2 60.87 42.85 60.79 43.29C60.62 44.18 60.15 46.05 59.91 46.81C59.86 46.95 59.81 47.13 59.75 47.32C59.69 47.5 59.63 47.69 59.59 47.83C59.44 48.33 58.46 50.74 58 51.7C57.75 52.24 56.34 54.74 55.86 55.47C55.79 55.57 55.68 55.78 55.61 55.93C55.54 56.08 55.03 56.78 54.5 57.46C54.36 57.64 54.21 57.83 54.06 58.02C53.63 58.57 53.2 59.13 52.97 59.41C52.67 59.79 52.31 60.23 52.17 60.39C50.82 61.83 50.29 62.36 49.79 62.77C49.56 62.96 49.09 63.35 48.58 63.76C48.35 63.95 48.12 64.14 47.9 64.32C46.72 65.28 44.49 66.89 43.3 67.62C42.4 68.17 39.55 69.79 39.47 69.79C39.45 69.79 39.26 69.86 39.05 69.96C38.57 70.18 37.78 70.55 37.24 70.79C36.57 71.08 33.5 72.19 33.19 72.24C33.03 72.27 32.79 72.33 32.65 72.38L32.38 51.67C32.64 51.49 32.88 51.3 33.12 51.13C37.18 48.06 42.52 43.16 46.75 38.61C47.52 37.79 48.24 37.01 48.52 36.71C48.57 36.66 48.61 36.62 48.63 36.6L48.87 36.34L49.24 36.6C49.88 37.02 50.6 37.59 50.84 37.87C51.45 38.55 51.58 38.65 51.8 38.65C51.92 38.65 52.06 38.62 52.09 38.56C52.17 38.42 51.91 37.98 51.61 37.78C51.33 37.59 49.67 35.83 49.54 35.59C49.48 35.48 49.55 35.36 49.77 35.12C49.94 34.95 50.28 34.56 50.52 34.25C51.41 33.15 52.64 31.89 52.83 31.89C52.9 31.89 52.99 31.97 53.02 32.08C53.09 32.33 53.63 32.72 53.89 32.72C54.23 32.72 54.79 32.38 55 32.05C55.46 31.3 55.03 30.29 54.01 29.65C53.68 29.45 52.61 29.33 52.18 29.45C51.62 29.61 48.51 31.86 47.48 32.86L47.03 33.29L46.33 32.75C45.93 32.46 45.39 31.99 45.11 31.72C44.85 31.45 44.53 31.18 44.43 31.1C43.87 30.71 43.69 31.22 44.21 31.7C44.85 32.29 45.46 32.89 45.92 33.4C46.39 33.93 46.4 33.95 46.22 34.1C46.13 34.19 45.74 34.6 45.38 35.04C44.19 36.44 42.99 37.73 40.57 40.15C37.96 42.76 37.75 42.96 34.88 45.47C34.07 46.19 33.23 46.87 32.36 47.55L32.36 32.63C36.43 32.63 39.74 32.6 39.74 32.57C39.74 32.52 39.57 32.12 39.38 31.66C39.28 31.43 39.07 30.95 38.81 30.35C38.54 29.74 38.23 29.02 37.92 28.32C37.45 27.22 36.93 26.02 36.62 25.32C36.54 25.14 36.48 25 36.43 24.89C35.96 23.83 35.9 23.64 35.99 23.64C36.04 23.64 36.44 23.81 36.91 24.02C37.66 24.37 37.94 24.49 38.49 24.73C38.68 24.81 38.9 24.9 39.18 25.02C39.66 25.24 40.14 25.45 40.25 25.5C41.13 25.91 44.72 27.44 44.8 27.44C44.89 27.44 44.92 25.91 44.92 19.99L44.92 12.53L44.44 12.76C44.17 12.88 43.3 13.25 42.51 13.58C41.73 13.92 41.01 14.24 40.92 14.29C40.84 14.33 40.62 14.43 40.41 14.52C40.38 14.53 40.35 14.54 40.32 14.55C40.11 14.63 39.36 14.96 38.5 15.33C38.31 15.41 38.12 15.49 37.93 15.57C36.87 16.04 35.96 16.42 35.92 16.42C35.88 16.42 35.91 16.3 35.98 16.16C36.12 15.88 36.79 14.37 37.48 12.72C37.57 12.5 37.67 12.28 37.75 12.09C37.88 11.8 37.98 11.56 38.03 11.47C38.46 10.51 38.98 9.29 39.04 9.1C39.08 8.97 39.15 8.82 39.18 8.77C39.25 8.69 39.74 7.53 39.74 7.46C39.74 7.44 36.43 7.43 32.36 7.43C32.34 7.43 32.31 7.43 32.29 7.43L32.36 7.43L32.36 2.43ZM4.3 44.49C4.24 44.16 4.16 43.76 4.11 43.58L5.19 47.73C4.66 45.97 4.4 45.02 4.3 44.49ZM17.39 64.74L17.1 64.5C17.19 64.57 17.29 64.65 17.39 64.74ZM28.91 71.31L31.88 72.33C31.1 72.09 30.09 71.77 29.84 71.66C29.71 71.6 29.29 71.44 28.91 71.31ZM40.28 53.25C40.21 53.17 39.07 52.33 37.75 51.36C36.42 50.38 35.32 49.59 35.3 49.59C35.27 49.6 35.12 49.72 34.95 49.87L34.66 50.13L35.14 50.5C35.9 51.06 39.77 53.9 39.89 53.97C39.96 54.01 40.08 53.91 40.2 53.7C40.38 53.42 40.39 53.35 40.28 53.25ZM42.85 52.55C42.63 52.27 42.35 51.87 42.2 51.64C42.05 51.43 41.91 51.26 41.89 51.26C41.87 51.26 41.88 51.5 41.9 51.78C42.03 53.08 42.07 54.31 41.98 54.31C41.93 54.31 41.61 54.1 41.26 53.85C40.9 53.59 40.6 53.39 40.57 53.39C40.51 53.4 40.02 54.11 40.02 54.2C40.02 54.24 40.31 54.47 40.66 54.73C41.24 55.15 41.42 55.33 41.26 55.33C41.21 55.33 40.76 55.44 38.67 56L38.3 56.09L39.55 56.49C40.04 56.65 40.88 56.91 41.68 57.17C42 57.27 42.32 57.37 42.61 57.46C43.17 57.64 43.89 57.87 44.55 58.08C45.03 58.23 45.48 58.37 45.8 58.47C46.57 58.72 47.21 58.91 47.22 58.89C47.25 58.86 46.82 58.23 45.45 56.28C44.68 55.2 44.42 54.82 43.92 54.09L43.82 53.94C43.49 53.46 43.05 52.83 42.85 52.55Z" fill="#000000" fill-opacity="1.000000" fill-rule="evenodd"/>
	<path id="Vector" d="M2.57 30.04C2.54 29.35 2.49 22.86 2.47 15.6L2.45 9.01L2.44 5.72L2.43 2.43L17.39 2.43L24.88 2.43L32.36 2.43L32.36 7.43L32.29 7.43C28.19 7.43 24.84 7.44 24.84 7.46C24.84 7.47 24.91 7.65 25.01 7.85C25.22 8.27 26.79 11.91 27.39 13.36C27.62 13.9 27.86 14.45 27.94 14.61C28.36 15.48 28.73 16.36 28.69 16.4C28.66 16.42 28.45 16.35 28.22 16.24L28.18 16.22L28.18 16.22C27.93 16.11 27.42 15.89 27 15.71C26.56 15.53 26.13 15.34 26.05 15.3C25.97 15.26 25.26 14.94 24.47 14.6C23.68 14.27 22.85 13.91 22.62 13.79C21.56 13.32 19.9 12.62 19.83 12.62C19.79 12.62 19.75 15.95 19.75 20.03C19.75 25.21 19.78 27.44 19.85 27.44C19.9 27.44 20.37 27.26 20.89 27.03C21.41 26.81 22.33 26.41 22.94 26.15C23.55 25.89 24.18 25.62 24.33 25.54C25.11 25.17 28.67 23.65 28.7 23.68C28.72 23.69 28.6 24 28.44 24.35C27.95 25.42 27.84 25.69 27.5 26.49L27.5 26.49L27.43 26.65C27.22 27.16 26.97 27.75 26.87 27.96C26.77 28.16 26.69 28.36 26.69 28.39C26.69 28.42 26.5 28.84 26.27 29.33C26.04 29.82 25.86 30.25 25.86 30.29C25.86 30.33 25.34 31.52 25.01 32.21C24.91 32.41 24.84 32.58 24.84 32.6C24.84 32.62 28.19 32.63 32.29 32.63L32.36 32.63L32.36 47.55C30.07 49.34 27.48 51.08 24.14 53.09C21.62 54.61 19.7 55.68 17.62 56.73L16.09 57.5L16.46 57.56C17.95 57.84 21.26 57.45 23.36 56.75C25.4 56.07 29.42 53.78 32.38 51.67L32.65 72.38C32.47 72.46 32.27 72.44 31.88 72.33L28.91 71.31C26.5 70.43 22.61 68.41 20.45 66.93C20.05 66.65 19.43 66.23 19.11 66.01C18.36 65.51 18.19 65.38 17.39 64.74L17.1 64.5C16.97 64.39 16.87 64.3 16.83 64.26C16.79 64.21 16.31 63.82 15.77 63.39C14.22 62.16 12.42 60.26 10.96 58.3C10.94 58.27 10.91 58.23 10.88 58.19C10.73 58 10.5 57.7 10.31 57.47C10.08 57.18 9.73 56.7 9.51 56.4C9.05 55.71 7.09 52.31 6.79 51.67C6.35 50.7 5.34 48.23 5.19 47.73L4.11 43.58L4.11 43.56C3.99 43.1 3.66 41.4 3.6 40.97C3.57 40.77 3.45 39.86 3.32 38.95C3.04 36.95 2.76 33.65 2.57 30.04ZM15.59 31.5C15.36 31.29 14.76 30.73 14.26 30.28C13.76 29.81 13.32 29.43 13.27 29.41C13.22 29.39 13.22 29.48 13.26 29.64C13.31 29.78 13.48 30.76 13.65 31.83L13.95 33.74L15.15 34.63C15.81 35.11 16.37 35.49 16.4 35.46C16.43 35.43 16.4 35.02 16.34 34.55C16.29 34.09 16.19 33.29 16.13 32.8L16.03 31.89L15.59 31.5ZM18.17 33.88L17.87 33.61C17.7 33.47 17.3 33.09 16.96 32.76C16.63 32.44 16.33 32.19 16.32 32.21C16.29 32.23 16.36 33.03 16.46 33.98L16.65 35.72L17.48 36.35C17.94 36.69 18.32 36.96 18.34 36.94C18.36 36.92 18.32 36.23 18.27 35.39L18.17 33.88ZM19.47 37.84C19.47 37.9 17.93 36.79 14.2 34.04C13.61 33.6 13.09 33.21 13.03 33.18C12.91 33.08 12.81 33.17 12.81 33.37C12.81 33.47 12.72 33.59 12.61 33.67L12.41 33.8L12.68 33.97C12.83 34.07 13.66 34.67 14.52 35.32C16.21 36.58 22.29 41.05 24.13 42.39C25.22 43.18 26.29 43.97 28.22 45.39C30.93 47.39 31.64 47.92 31.69 47.92C31.71 47.91 31.87 47.8 32.04 47.66L32.35 47.4L31.81 46.99C31.51 46.77 31.07 46.44 30.81 46.25C30.56 46.07 29.95 45.62 29.47 45.27C28.98 44.91 28.27 44.39 27.89 44.11C26.45 43.06 25.58 42.42 24.09 41.31C23.25 40.69 21.96 39.75 21.23 39.21C19.72 38.1 19.46 37.89 19.66 37.96C19.78 38.01 19.8 37.83 19.77 36.69C19.73 35.21 19.79 35.33 18.88 34.55L18.33 34.07L18.4 35.13C18.52 37.16 18.51 37.12 19.02 37.47C19.27 37.63 19.47 37.8 19.47 37.84ZM15.81 36.38L14.59 35.48C13.59 34.73 13.32 34.58 13.07 34.59C12.75 34.6 10.87 34.86 9.66 35.07L8.98 35.18L10.59 36.11C11.48 36.62 12.3 37.02 12.4 37.02C12.58 37 13.62 36.82 15.26 36.5L15.81 36.38ZM20.86 36.37L20.51 36.05C19.77 35.37 19.8 35.36 19.87 36.19C19.91 36.59 19.93 37.2 19.93 37.54L19.93 38.16L20.4 38.45L20.86 38.74L20.86 37.55L20.86 36.37ZM17.58 37.76C17.6 37.72 17.27 37.43 16.84 37.13C16.42 36.83 16.04 36.57 15.99 36.56C15.79 36.51 12.62 37.21 12.7 37.28C12.74 37.33 13.22 37.62 13.74 37.92L14.71 38.49L15.31 38.37C16.39 38.16 17.57 37.85 17.58 37.76ZM19.04 38.81C19.05 38.78 18.79 38.56 18.46 38.33C18.13 38.1 17.84 37.91 17.81 37.92C17.64 37.95 15.24 38.57 15.13 38.61C15.05 38.64 15.29 38.83 15.79 39.11L16.59 39.55L17.81 39.22C18.47 39.03 19.03 38.85 19.04 38.81ZM20.2 39.63C20.18 39.62 19.97 39.45 19.72 39.27C19.48 39.08 19.25 38.94 19.21 38.94C18.92 38.99 16.88 39.62 16.88 39.66C16.88 39.75 17.86 40.32 18 40.32C18.16 40.32 20.24 39.67 20.2 39.63Z" fill="#0956B9" fill-opacity="1.000000" fill-rule="evenodd"/>
	<path id="Vector 42" d="M2.53 0L22.8 0L47.09 0L64.71 0L64.93 6.87L64.93 17.3L64.86 25.28L64.86 26.46L64.71 29.44L64.57 32.66L64.26 36.92L64.04 38.89L63.5 42.43L63.06 44.67L62.62 46.42L62.21 47.8L61.57 49.66L60.95 51.16L60.31 52.64L59.55 54.08L58.81 55.4L58.11 56.64L57.15 58.11L56.33 59.18L54.39 61.64L51.88 64.27L49 66.63L46.37 68.55L44.13 70.05L41.62 71.46L39.21 72.65L35.17 74.21L32.88 74.9L32.02 74.9L30.86 74.64L28.74 73.92L26.67 73.11L24.9 72.29L22.61 71.13L20.31 69.81L18.84 68.85L16.71 67.39L14.93 65.93L12.77 64.1L11.43 62.75L9.87 60.98L8.28 58.98L6.61 56.49L5.74 54.95L4.8 53.23L3.46 50.29L2.71 48.07L2.01 45.68L1.46 43.17L0.99 40.27L0.6 37.04L0.24 32.7L0.03 27.53L0.03 24.56L2.28e-5 16.61L0 8.68L0 2.5L5 2.5L5 8.68L4.99 16.59L5.03 24.56L5.03 27.48L2.53 27.48L5.03 27.37L5.24 32.45L2.74 32.55L5.23 32.35L5.58 36.59L3.08 36.79L5.57 36.49L5.95 39.61L3.47 39.92L5.93 39.52L6.39 42.3L3.92 42.7L6.36 42.16L6.88 44.52L4.44 45.06L6.84 44.36L7.5 46.62L5.1 47.32L7.47 46.52L8.16 48.57L5.79 49.37L8.07 48.33L9.32 51.08L7.04 52.11L9.24 50.92L10.08 52.47L10.91 53.93L8.74 55.17L10.82 53.78L12.38 56.11L10.3 57.5L12.26 55.94L13.75 57.82L11.8 59.37L13.68 57.73L15.14 59.4L13.25 61.04L15.02 59.28L16.24 60.49L14.47 62.26L16.08 60.35L18.1 62.06L19.8 63.45L18.22 65.39L19.64 63.33L21.65 64.72L20.23 66.78L21.59 64.68L22.98 65.58L21.62 67.68L22.86 65.51L25.04 66.76L23.8 68.93L24.94 66.7L27.12 67.81L25.99 70.04L27.03 67.77L28.7 68.53L27.65 70.81L28.57 68.48L30.51 69.24L29.6 71.57L30.4 69.2L32.34 69.86L31.54 72.23L32.1 69.79L32.86 69.97L32.3 72.4L32.3 69.9L32.51 69.9L32.51 72.4L31.79 70.01L33.63 69.46L34.35 71.85L33.45 69.52L37.3 68.02L38.2 70.35L37.1 68.11L39.35 67L40.46 69.24L39.24 67.06L41.6 65.74L42.82 67.92L41.42 65.85L43.54 64.42L44.94 66.5L43.47 64.48L46 62.63L47.47 64.66L45.88 62.72L48.59 60.5L50.18 62.43L48.37 60.7L50.69 58.27L52.5 60L50.54 58.45L52.35 56.16L53.11 55.15L55.1 56.66L53.01 55.29L53.88 53.97L55.97 55.34L53.79 54.13L54.46 52.93L55.18 51.64L57.36 52.88L55.15 51.71L55.84 50.39L58.05 51.56L55.76 50.56L56.33 49.25L56.92 47.82L59.23 48.78L56.87 47.97L57.46 46.24L59.82 47.04L57.43 46.33L57.81 45.04L60.2 45.75L57.78 45.14L58.2 43.5L60.62 44.12L58.17 43.64L58.58 41.52L61.04 42L58.57 41.63L59.09 38.19L61.56 38.56L59.07 38.29L59.28 36.41L61.77 36.68L59.27 36.5L59.59 32.33L62.08 32.52L59.58 32.41L59.72 29.2L59.86 26.28L62.36 26.4L59.86 26.4L59.86 25.23L59.93 17.3L59.93 6.91L62.43 6.91L59.93 6.99L59.79 2.57L62.29 2.5L62.29 5L47.09 5L22.8 5L2.53 5L2.53 0ZM2.55 5L0.03 5L0.03 0L2.55 0L2.55 5ZM0 2.52L0 0L5 0L5 2.52L0 2.52Z" fill="#46461C" fill-opacity="1.000000" fill-rule="evenodd"/>
</svg>
