<svg width="92" height="92" viewBox="0 0 92 92" fill="none" xmlns="http://www.w3.org/2000/svg">
<path d="M48.1388 11.4311C46.744 10.959 45.2326 10.959 43.8378 11.4311L17.8631 20.2286C17.0171 20.5034 16.2699 21.0196 15.7135 21.7136C15.157 22.4076 14.8156 23.2492 14.7313 24.1347C13.4395 40.3344 15.682 52.3136 21.0065 61.3641C26.1585 70.1232 34.4001 76.4904 45.9883 81.2361C57.588 76.4904 65.8373 70.1232 70.9893 61.3641C76.3176 52.3174 78.5602 40.3344 77.2683 24.1347C77.184 23.2492 76.8426 22.4076 76.2862 21.7136C75.7297 21.0196 74.9825 20.5034 74.1365 20.2286L48.1388 11.4311ZM41.994 5.98773C44.5843 5.10957 47.3915 5.10823 49.9826 5.98389L75.9803 14.7814C77.89 15.4174 79.5717 16.5983 80.8183 18.1786C82.0648 19.7589 82.8216 21.6695 82.9953 23.6747C84.3485 40.5797 82.0753 53.8661 75.9458 64.2812C69.7971 74.7271 59.9953 81.9069 47.0425 87.0091C46.3651 87.276 45.6116 87.276 44.9342 87.0091C31.9928 81.9069 22.1948 74.7271 16.05 64.2812C9.92432 53.8661 7.65115 40.5759 9.00048 23.6747C9.17422 21.6695 9.931 19.7589 11.1775 18.1786C12.4241 16.5983 14.1058 15.4174 16.0155 14.7814L41.994 5.98773Z" fill="#090909"/>
<path opacity="0.8" d="M46 76.6669C65.2893 68.8469 74.3897 55.1313 72.6148 29.2601C72.4155 26.3199 70.4068 23.8321 67.62 22.8623L49.1433 16.4299C48.1327 16.0781 47.0702 15.898 46 15.8971V76.6669Z" fill="#FFE604"/>
<path opacity="0.8" d="M45.7734 76.6669C26.4841 68.8469 17.3838 55.1313 19.1586 29.2601C19.3579 26.3199 21.3666 23.8321 24.1534 22.8623L42.6301 16.4299C43.6408 16.0781 44.7033 15.898 45.7734 15.8971V76.6669Z" fill="#202DE9"/>
<path d="M69.0019 38.3333C69.0019 38.3333 69.0019 40.5068 68.1107 43.3646L58.1785 33.4343C57.6398 32.895 56.9091 32.5917 56.1468 32.591H47.3244C46.6815 32.5915 46.0573 32.8074 45.5515 33.2043L42.0689 35.9298C41.8299 36.1171 41.5563 36.2554 41.2638 36.3368C40.9713 36.4182 40.6656 36.4412 40.3642 36.4043C40.0628 36.3675 39.7716 36.2716 39.5073 36.1221C39.2431 35.9726 39.0108 35.7724 38.824 35.5331C38.4465 35.0491 38.2762 34.4351 38.3506 33.8258C38.425 33.2164 38.7379 32.6614 39.2207 32.2824L51.1041 23H53.6686C57.7352 23 61.6353 24.6155 64.5109 27.491C67.3864 30.3666 69.0019 34.2667 69.0019 38.3333ZM29.4879 44.7158C29.2962 44.5236 29.0684 44.3711 28.8176 44.267C28.5668 44.163 28.298 44.1094 28.0264 44.1094C27.7549 44.1094 27.4861 44.163 27.2353 44.267C26.9845 44.3711 26.7567 44.5236 26.565 44.7158L23.6057 47.6867C23.2178 48.0761 23 48.6033 23 49.1529C23 49.7025 23.2178 50.2298 23.6057 50.6192C23.7974 50.8114 24.0252 50.9639 24.276 51.068C24.5268 51.172 24.7956 51.2256 25.0671 51.2256C25.3386 51.2256 25.6075 51.172 25.8583 51.068C26.109 50.9639 26.3368 50.8114 26.5286 50.6192L29.4879 47.6483C29.8757 47.2593 30.0934 46.7323 30.0934 46.183C30.0934 45.6337 29.8757 45.1068 29.4879 44.7177M32.5469 48.7217C32.7386 48.5289 32.9664 48.376 33.2174 48.2716C33.4684 48.1672 33.7375 48.1135 34.0093 48.1135C34.2811 48.1135 34.5503 48.1672 34.8012 48.2716C35.0522 48.376 35.2801 48.5289 35.4717 48.7217C35.859 49.111 36.0764 49.6378 36.0764 50.187C36.0764 50.7361 35.859 51.2629 35.4717 51.6522L32.5086 54.6173C32.317 54.8098 32.0892 54.9625 31.8384 55.0667C31.5876 55.1709 31.3187 55.2245 31.0471 55.2245C30.7755 55.2245 30.5066 55.1709 30.2558 55.0667C30.005 54.9625 29.7773 54.8098 29.5857 54.6173C29.1984 54.228 28.981 53.7012 28.981 53.152C28.981 52.6029 29.1984 52.0761 29.5857 51.6867L32.5469 48.7217ZM40.4378 53.6992C40.2461 53.507 40.0183 53.3545 39.7675 53.2505C39.5167 53.1464 39.2479 53.0928 38.9764 53.0928C38.7049 53.0928 38.436 53.1464 38.1852 53.2505C37.9344 53.3545 37.7067 53.507 37.5149 53.6992L34.5556 56.6662C34.1672 57.0554 33.9491 57.5827 33.9491 58.1325C33.9491 58.6823 34.1672 59.2096 34.5556 59.5987C34.7472 59.7912 34.9749 59.9439 35.2257 60.0481C35.4765 60.1523 35.7454 60.206 36.017 60.206C36.2886 60.206 36.5575 60.1523 36.8083 60.0481C37.0591 59.9439 37.2869 59.7912 37.4785 59.5987L40.4378 56.6298C40.8257 56.2404 41.0435 55.7132 41.0435 55.1636C41.0435 54.614 40.8257 54.0886 40.4378 53.6992ZM45.402 58.673C45.2103 58.4803 44.9825 58.3273 44.7315 58.2229C44.4805 58.1185 44.2114 58.0648 43.9396 58.0648C43.6678 58.0648 43.3986 58.1185 43.1477 58.2229C42.8967 58.3273 42.6688 58.4803 42.4772 58.673L39.5178 61.6419C39.1305 62.0312 38.9131 62.5581 38.9131 63.1072C38.9131 63.6564 39.1305 64.1832 39.5178 64.5725C39.7094 64.765 39.9372 64.9177 40.188 65.0219C40.4388 65.1261 40.7077 65.1797 40.9793 65.1797C41.2509 65.1797 41.5198 65.1261 41.7706 65.0219C42.0214 64.9177 42.2491 64.765 42.4407 64.5725L45.4001 61.6036C45.7878 61.2145 46.0056 60.6876 46.0056 60.1383C46.0056 59.589 45.7878 59.0621 45.4001 58.673M44.16 23.5597C43.1504 23.2615 42.1111 23.0751 41.0607 23.0038L40.8882 23H40.2519C36.1853 23 32.2852 24.6155 29.4096 27.491C26.534 30.3666 24.9186 34.2667 24.9186 38.3333V42.3334C25.866 41.5625 27.0661 41.1711 28.2859 41.2353C29.5057 41.2994 30.6581 41.8144 31.5196 42.6803C32.2728 43.4374 32.7328 44.3785 32.8977 45.3598C33.6248 45.1933 34.3802 45.1934 35.1073 45.3602C35.8344 45.5269 36.5144 45.8561 37.0962 46.3229C37.6781 46.7897 38.1468 47.3821 38.4673 48.0558C38.7877 48.7294 38.9516 49.4669 38.9467 50.2128C39.6006 50.2098 40.2486 50.3364 40.8532 50.5855C41.4578 50.8346 42.0071 51.2011 42.4691 51.6638C42.9311 52.1266 43.2968 52.6764 43.5449 53.2814C43.793 53.8864 43.9187 54.5346 43.9147 55.1885C44.567 55.1853 45.2135 55.3118 45.8166 55.5605C46.4198 55.8093 46.9674 56.1754 47.4279 56.6375C48.3537 57.5678 48.8735 58.8268 48.8735 60.1392C48.8735 61.4517 48.3537 62.7107 47.4279 63.641L46.9967 64.0742L49.4385 66.4968C49.8257 66.8778 50.3471 67.0914 50.8904 67.0914C51.4336 67.0914 51.955 66.8778 52.3422 66.4968C53.1357 65.711 53.1377 64.4383 52.3461 63.6506C52.0741 63.3809 51.9204 63.0142 51.9188 62.6313C51.9172 62.2483 52.0678 61.8803 52.3375 61.6084C52.6071 61.3364 52.9738 61.1827 53.3568 61.1811C53.7398 61.1795 54.1077 61.3301 54.3797 61.5997C54.7669 61.9808 55.2883 62.1943 55.8315 62.1943C56.3748 62.1943 56.8962 61.9808 57.2834 61.5997C57.4719 61.4136 57.6215 61.1919 57.7238 60.9476C57.826 60.7032 57.8787 60.441 57.8789 60.1761C57.879 59.9112 57.8267 59.6489 57.7248 59.4044C57.6229 59.1599 57.4735 58.938 57.2853 58.7516C57.0305 58.4784 56.8914 58.1172 56.897 57.7437C56.9027 57.3702 57.0528 57.0134 57.3159 56.7482C57.5789 56.4829 57.9344 56.3298 58.3078 56.321C58.6813 56.3121 59.0436 56.4482 59.3189 56.7007C59.7065 57.0807 60.2279 57.2932 60.7706 57.2924C61.3134 57.2917 61.8341 57.0779 62.2207 56.6969C63.0334 55.8919 63.0296 54.5847 62.2533 53.8123L62.2476 53.8085L57.9293 49.4883C57.6754 49.2158 57.5372 48.8554 57.5437 48.483C57.5503 48.1106 57.7012 47.7553 57.9646 47.4919C58.2279 47.2285 58.5832 47.0777 58.9557 47.0711C59.3281 47.0645 59.6885 47.2027 59.961 47.4567L65.0133 52.5032C66.0234 53.5057 67.689 53.5152 68.5649 52.647C69.437 51.7826 69.4293 50.1419 68.4288 49.1472L68.425 49.1433L55.706 36.4262H47.656L44.4322 38.9486C43.7967 39.4459 43.0695 39.813 42.292 40.0292C41.5146 40.2453 40.7022 40.3062 39.9013 40.2083C39.1003 40.1104 38.3265 39.8557 37.624 39.4587C36.9215 39.0616 36.3042 38.5301 35.8072 37.8944C34.8029 36.6096 34.3499 34.9786 34.5476 33.3599C34.7452 31.7412 35.5774 30.2672 36.8613 29.2617L44.16 23.5597Z" fill="#1A191C"/>
</svg>
