<svg width="60" height="61" viewBox="0 0 60 61" fill="none" xmlns="http://www.w3.org/2000/svg">
<path d="M31.3949 8.38227C30.4852 8.07442 29.4995 8.07442 28.5899 8.38227L11.6499 14.1198C11.0981 14.299 10.6108 14.6356 10.2479 15.0883C9.88501 15.5409 9.66236 16.0897 9.60738 16.6673C8.76488 27.2323 10.2274 35.0448 13.6999 40.9473C17.0599 46.6598 22.4349 50.8123 29.9924 53.9073C37.5574 50.8123 42.9374 46.6598 46.2974 40.9473C49.7724 35.0473 51.2349 27.2323 50.3924 16.6673C50.3374 16.0897 50.1148 15.5409 49.7519 15.0883C49.389 14.6356 48.9016 14.299 48.3499 14.1198L31.3949 8.38227ZM27.3874 4.83227C29.0767 4.25957 30.9075 4.25869 32.5974 4.82977L49.5524 10.5673C50.7978 10.982 51.8946 11.7522 52.7076 12.7829C53.5205 13.8135 54.0141 15.0595 54.1274 16.3673C55.0099 27.3923 53.5274 36.0573 49.5299 42.8498C45.5199 49.6623 39.1274 54.3448 30.6799 57.6723C30.2381 57.8464 29.7467 57.8464 29.3049 57.6723C20.8649 54.3448 14.4749 49.6623 10.4674 42.8498C6.47238 36.0573 4.98988 27.3898 5.86988 16.3673C5.98318 15.0595 6.47674 13.8135 7.2897 12.7829C8.10265 11.7522 9.19946 10.982 10.4449 10.5673L27.3874 4.83227Z" fill="#090909"/>
<path opacity="0.8" d="M30 50.9274C42.58 45.8274 48.515 36.8824 47.3575 20.0099C47.2275 18.0924 45.9175 16.4699 44.1 15.8374L32.05 11.6424C31.3909 11.4129 30.6979 11.2955 30 11.2949V50.9274Z" fill="#FFE604"/>
<path opacity="0.8" d="M29.8521 50.9274C17.272 45.8274 11.337 36.8824 12.4945 20.0099C12.6245 18.0924 13.9346 16.4699 15.7521 15.8374L27.8021 11.6424C28.4612 11.4129 29.1541 11.2955 29.8521 11.2949V50.9274Z" fill="#202DE9"/>
<path d="M45.0012 25.9272C45.0012 25.9272 45.0012 27.3447 44.42 29.2085L37.9425 22.7322C37.5912 22.3805 37.1146 22.1827 36.6175 22.1822H30.8637C30.4444 22.1825 30.0373 22.3234 29.7075 22.5822L27.4362 24.3597C27.2804 24.4819 27.1019 24.5721 26.9112 24.6252C26.7204 24.6783 26.521 24.6932 26.3245 24.6692C26.1279 24.6452 25.938 24.5826 25.7657 24.4851C25.5933 24.3876 25.4419 24.2571 25.32 24.101C25.0738 23.7853 24.9627 23.3849 25.0112 22.9875C25.0598 22.5901 25.2638 22.2282 25.5787 21.981L33.3287 15.9272H35.0012C37.6534 15.9272 40.1969 16.9808 42.0723 18.8562C43.9477 20.7315 45.0012 23.2751 45.0012 25.9272ZM19.2312 30.0897C19.1062 29.9644 18.9576 29.8649 18.7941 29.7971C18.6305 29.7292 18.4552 29.6943 18.2781 29.6943C18.101 29.6943 17.9257 29.7292 17.7622 29.7971C17.5986 29.8649 17.45 29.9644 17.325 30.0897L15.395 32.0272C15.142 32.2812 15 32.625 15 32.9835C15 33.3419 15.142 33.6858 15.395 33.9397C15.52 34.0651 15.6686 34.1646 15.8322 34.2324C15.9957 34.3003 16.171 34.3352 16.3481 34.3352C16.5252 34.3352 16.7005 34.3003 16.8641 34.2324C17.0276 34.1646 17.1762 34.0651 17.3012 33.9397L19.2312 32.0022C19.4841 31.7485 19.6261 31.4049 19.6261 31.0466C19.6261 30.6884 19.4841 30.3447 19.2312 30.091M21.2262 32.7022C21.3512 32.5765 21.4998 32.4768 21.6635 32.4087C21.8272 32.3406 22.0027 32.3056 22.18 32.3056C22.3573 32.3056 22.5328 32.3406 22.6965 32.4087C22.8601 32.4768 23.0088 32.5765 23.1337 32.7022C23.3863 32.9562 23.5281 33.2997 23.5281 33.6579C23.5281 34.016 23.3863 34.3596 23.1337 34.6135L21.2012 36.5472C21.0763 36.6728 20.9277 36.7724 20.7642 36.8403C20.6006 36.9083 20.4252 36.9433 20.2481 36.9433C20.071 36.9433 19.8956 36.9083 19.7321 36.8403C19.5685 36.7724 19.42 36.6728 19.295 36.5472C19.0424 36.2933 18.9006 35.9498 18.9006 35.5916C18.9006 35.2335 19.0424 34.8899 19.295 34.636L21.2262 32.7022ZM26.3725 35.9485C26.2474 35.8231 26.0989 35.7237 25.9353 35.6558C25.7718 35.5879 25.5964 35.553 25.4194 35.553C25.2423 35.553 25.067 35.5879 24.9034 35.6558C24.7399 35.7237 24.5913 35.8231 24.4662 35.9485L22.5362 37.8835C22.283 38.1373 22.1407 38.4812 22.1407 38.8397C22.1407 39.1983 22.283 39.5422 22.5362 39.796C22.6612 39.9215 22.8097 40.0211 22.9733 40.0891C23.1369 40.157 23.3122 40.192 23.4894 40.192C23.6665 40.192 23.8419 40.157 24.0054 40.0891C24.169 40.0211 24.3175 39.9215 24.4425 39.796L26.3725 37.8597C26.6255 37.6058 26.7675 37.2619 26.7675 36.9035C26.7675 36.545 26.6255 36.2025 26.3725 35.9485ZM29.61 39.1922C29.485 39.0665 29.3364 38.9668 29.1727 38.8987C29.009 38.8307 28.8335 38.7956 28.6562 38.7956C28.479 38.7956 28.3035 38.8307 28.1398 38.8987C27.9761 38.9668 27.8275 39.0665 27.7025 39.1922L25.7725 41.1285C25.5199 41.3824 25.3781 41.726 25.3781 42.0841C25.3781 42.4423 25.5199 42.7858 25.7725 43.0397C25.8975 43.1653 26.046 43.2649 26.2096 43.3328C26.3731 43.4008 26.5485 43.4358 26.7256 43.4358C26.9027 43.4358 27.0781 43.4008 27.2417 43.3328C27.4052 43.2649 27.5538 43.1653 27.6787 43.0397L29.6087 41.1035C29.8616 40.8498 30.0036 40.5061 30.0036 40.1479C30.0036 39.7896 29.8616 39.446 29.6087 39.1922M28.8 16.2922C28.1415 16.0978 27.4637 15.9762 26.7787 15.9297L26.6662 15.9272H26.2512C23.5991 15.9272 21.0555 16.9808 19.1802 18.8562C17.3048 20.7315 16.2512 23.2751 16.2512 25.9272V28.536C16.8692 28.0332 17.6518 27.778 18.4473 27.8198C19.2428 27.8616 19.9944 28.1975 20.5562 28.7622C21.0475 29.256 21.3475 29.8697 21.455 30.5097C21.9292 30.4011 22.4219 30.4012 22.8961 30.51C23.3703 30.6187 23.8137 30.8334 24.1932 31.1378C24.5727 31.4423 24.8784 31.8286 25.0874 32.268C25.2963 32.7073 25.4032 33.1882 25.4 33.6747C25.8265 33.6728 26.2491 33.7554 26.6434 33.9178C27.0377 34.0802 27.3959 34.3193 27.6972 34.6211C27.9986 34.9228 28.237 35.2814 28.3989 35.676C28.5607 36.0705 28.6426 36.4933 28.64 36.9197C29.0655 36.9177 29.4871 37.0002 29.8804 37.1624C30.2738 37.3246 30.6309 37.5633 30.9312 37.8647C31.535 38.4714 31.874 39.2926 31.874 40.1485C31.874 41.0044 31.535 41.8256 30.9312 42.4322L30.65 42.7147L32.2425 44.2947C32.495 44.5432 32.8351 44.6825 33.1894 44.6825C33.5436 44.6825 33.8837 44.5432 34.1362 44.2947C34.6537 43.7822 34.655 42.9522 34.1387 42.4385C33.9614 42.2626 33.8611 42.0235 33.8601 41.7737C33.859 41.5239 33.9572 41.284 34.1331 41.1066C34.309 40.9293 34.5481 40.829 34.7979 40.828C35.0477 40.8269 35.2876 40.9251 35.465 41.101C35.7175 41.3495 36.0576 41.4887 36.4119 41.4887C36.7661 41.4887 37.1062 41.3495 37.3587 41.101C37.4817 40.9796 37.5793 40.835 37.6459 40.6757C37.7126 40.5163 37.747 40.3453 37.7471 40.1725C37.7472 39.9998 37.713 39.8287 37.6466 39.6692C37.5802 39.5098 37.4827 39.3651 37.36 39.2435C37.1938 39.0654 37.1031 38.8298 37.1068 38.5862C37.1105 38.3426 37.2084 38.1099 37.3799 37.9369C37.5514 37.764 37.7833 37.6641 38.0268 37.6583C38.2704 37.6526 38.5067 37.7413 38.6862 37.906C38.939 38.1538 39.279 38.2923 39.633 38.2919C39.987 38.2914 40.3266 38.1519 40.5787 37.9035C41.1087 37.3785 41.1062 36.526 40.6 36.0222L40.5962 36.0197L37.78 33.2022C37.6144 33.0245 37.5242 32.7895 37.5285 32.5466C37.5328 32.3037 37.6312 32.072 37.803 31.9002C37.9747 31.7285 38.2065 31.6301 38.4493 31.6258C38.6922 31.6215 38.9273 31.7116 39.105 31.8772L42.4 35.1685C43.0587 35.8222 44.145 35.8285 44.7162 35.2622C45.285 34.6985 45.28 33.6285 44.6275 32.9797L44.625 32.9772L36.33 24.6835H31.08L28.9775 26.3285C28.5631 26.6528 28.0888 26.8923 27.5818 27.0332C27.0747 27.1742 26.5449 27.2139 26.0226 27.1501C25.5002 27.0862 24.9955 26.9201 24.5374 26.6612C24.0793 26.4022 23.6766 26.0556 23.3525 25.641C22.6976 24.8031 22.4021 23.7394 22.531 22.6837C22.6599 21.628 23.2027 20.6667 24.04 20.011L28.8 16.2922Z" fill="#1A191C"/>
</svg>
