<svg width="25" height="24" viewBox="0 0 25 24" fill="none" xmlns="http://www.w3.org/2000/svg">
<path d="M12.5 24C19.1274 24 24.5 18.6274 24.5 12C24.5 5.37258 19.1274 0 12.5 0C5.87258 0 0.5 5.37258 0.5 12C0.5 18.6274 5.87258 24 12.5 24Z" fill="url(#paint0_radial_2695_2611)"/>
<path d="M17.3323 20.4437H7.68268C5.69161 20.4437 4.07178 18.8238 4.07178 16.8327V7.18329C4.07178 5.1921 5.69161 3.57227 7.68268 3.57227H17.3323C19.3234 3.57227 20.9432 5.1921 20.9432 7.18329V16.8327C20.9432 18.8238 19.3234 20.4437 17.3323 20.4437ZM7.68268 5.54178C6.77749 5.54178 6.04129 6.27823 6.04129 7.18329V16.8327C6.04129 17.7379 6.77761 18.4741 7.68268 18.4741H17.3323C18.2375 18.4741 18.9737 17.7378 18.9737 16.8327V7.18329C18.9737 6.27823 18.2374 5.54178 17.3323 5.54178H7.68268Z" fill="#F1F2F2"/>
<path d="M12.5072 16.6688C9.93739 16.6688 7.84668 14.578 7.84668 12.0082C7.84668 9.4385 9.93739 7.34766 12.5072 7.34766C15.0771 7.34766 17.1681 9.4385 17.1681 12.0082C17.1681 14.578 15.0771 16.6688 12.5072 16.6688ZM12.5072 9.3173C11.0234 9.3173 9.81619 10.5244 9.81619 12.0082C9.81619 13.4921 11.0234 14.6992 12.5072 14.6992C13.9912 14.6992 15.1984 13.4921 15.1984 12.0082C15.1984 10.5244 13.9912 9.3173 12.5072 9.3173Z" fill="#F1F2F2"/>
<path d="M18.1167 7.49322C18.1167 7.95659 17.7409 8.33227 17.2775 8.33227C16.8142 8.33227 16.4385 7.95659 16.4385 7.49322C16.4385 7.02985 16.8142 6.6543 17.2775 6.6543C17.7409 6.6543 18.1167 7.02985 18.1167 7.49322Z" fill="#F1F2F2"/>
<defs>
<radialGradient id="paint0_radial_2695_2611" cx="0" cy="0" r="1" gradientUnits="userSpaceOnUse" gradientTransform="translate(5.12407 20.2331) scale(23.762)">
<stop stop-color="#FEC053"/>
<stop offset="0.3273" stop-color="#F2203E"/>
<stop offset="0.6485" stop-color="#B729A8"/>
<stop offset="1" stop-color="#5342D6"/>
</radialGradient>
</defs>
</svg>
