<svg width="25" height="24" viewBox="0 0 25 24" fill="none" xmlns="http://www.w3.org/2000/svg">
<path d="M24.2188 12.041C24.2188 18.5129 18.9718 23.7598 12.5 23.7598C6.02811 23.7598 0.78125 18.5129 0.78125 12.041C0.78125 5.56913 6.02811 0.322266 12.5 0.322266C18.9718 0.322266 24.2188 5.56913 24.2188 12.041Z" fill="#0A7BBA"/>
<path d="M19.5012 12.9832V17.8149H16.7003V13.3075C16.7003 12.1753 16.2963 11.4022 15.2814 11.4022C14.5083 11.4022 14.0482 11.9234 13.8452 12.4273C13.7708 12.6068 13.7524 12.8567 13.7524 13.1097V17.8149H10.9505C10.9505 17.8149 10.9883 10.1802 10.9505 9.38988H13.7524V10.5842C13.7474 10.5934 13.7392 10.6024 13.7341 10.6116H13.7524V10.5842C14.1248 10.011 14.7887 9.19188 16.2769 9.19188C18.1201 9.19188 19.5012 10.3965 19.5012 12.9832ZM8.02111 5.3291C7.06228 5.3291 6.43604 5.95845 6.43604 6.78466C6.43604 7.59349 7.04396 8.24009 7.98441 8.24009H8.00175C8.97891 8.24009 9.58683 7.59354 9.58683 6.78466C9.56846 5.95849 8.97891 5.3291 8.02111 5.3291ZM6.6023 17.8149H9.40219V9.38988H6.6023V17.8149Z" fill="#F2F2F2"/>
</svg>
