<svg width="25" height="24" viewBox="0 0 25 24" fill="none" xmlns="http://www.w3.org/2000/svg">
<g clip-path="url(#clip0_2695_2241)">
<path d="M12.5 24C19.1274 24 24.5 18.6274 24.5 12C24.5 5.37258 19.1274 0 12.5 0C5.87258 0 0.5 5.37258 0.5 12C0.5 18.6274 5.87258 24 12.5 24Z" fill="#039BE5"/>
<path d="M5.99077 11.7402L17.5608 7.27921C18.0978 7.08521 18.5668 7.41021 18.3928 8.22221L18.3938 8.22121L16.4238 17.5022C16.2778 18.1602 15.8868 18.3202 15.3398 18.0102L12.3398 15.7992L10.8928 17.1932C10.7328 17.3532 10.5978 17.4882 10.2878 17.4882L10.5008 14.4352L16.0608 9.41221C16.3028 9.19921 16.0068 9.07921 15.6878 9.29121L8.81677 13.6172L5.85477 12.6932C5.21177 12.4892 5.19777 12.0502 5.99077 11.7402Z" fill="white"/>
</g>
<defs>
<clipPath id="clip0_2695_2241">
<rect width="24" height="24" fill="white" transform="translate(0.5)"/>
</clipPath>
</defs>
</svg>
